<mxfile host="www.draw.io" modified="2020-01-13T02:57:27.469Z" agent="Mozilla/5.0 (Macintosh; Intel Mac OS X 10_15_2) AppleWebKit/537.36 (KHTML, like Gecko) Chrome/79.0.3945.88 Safari/537.36" etag="IX5j3XdBIA_psZw7Hw_L" version="12.5.1" type="github" pages="9">
  <diagram id="2axeBVnMluATRMXS3iiU" name="第 1 页">
    <mxGraphModel dx="1773" dy="590" grid="1" gridSize="10" guides="1" tooltips="1" connect="1" arrows="1" fold="1" page="1" pageScale="1" pageWidth="827" pageHeight="1169" math="0" shadow="0">
      <root>
        <mxCell id="0"/>
        <mxCell id="1" parent="0"/>
        <mxCell id="0mHmHjYfeUdzyArpti4x-1" value="" style="rounded=0;whiteSpace=wrap;html=1;align=center;" parent="1" vertex="1">
          <mxGeometry x="-100" y="10" width="820" height="780" as="geometry"/>
        </mxCell>
        <mxCell id="FRVTPdvZiZSE1ToP57z7-4" value="" style="rounded=0;whiteSpace=wrap;html=1;fillColor=#f5f5f5;strokeColor=#666666;fontColor=#333333;" parent="1" vertex="1">
          <mxGeometry x="-50" y="200" width="220" height="510" as="geometry"/>
        </mxCell>
        <mxCell id="FRVTPdvZiZSE1ToP57z7-47" value="" style="rounded=0;whiteSpace=wrap;html=1;align=center;fillColor=#d5e8d4;strokeColor=#82b366;" parent="1" vertex="1">
          <mxGeometry x="-40" y="225" width="200" height="265" as="geometry"/>
        </mxCell>
        <mxCell id="FRVTPdvZiZSE1ToP57z7-16" value="" style="rounded=0;whiteSpace=wrap;html=1;align=left;fillColor=#f5f5f5;strokeColor=#666666;fontColor=#333333;" parent="1" vertex="1">
          <mxGeometry x="260" y="140" width="420" height="175" as="geometry"/>
        </mxCell>
        <mxCell id="FRVTPdvZiZSE1ToP57z7-33" value="" style="rounded=0;whiteSpace=wrap;html=1;align=left;fillColor=#d5e8d4;strokeColor=#82b366;" parent="1" vertex="1">
          <mxGeometry x="270" y="170" width="400" height="140" as="geometry"/>
        </mxCell>
        <mxCell id="FRVTPdvZiZSE1ToP57z7-5" value="Page" style="text;html=1;strokeColor=none;fillColor=none;align=center;verticalAlign=middle;whiteSpace=wrap;rounded=0;" parent="1" vertex="1">
          <mxGeometry x="-50" y="200" width="40" height="20" as="geometry"/>
        </mxCell>
        <mxCell id="FRVTPdvZiZSE1ToP57z7-6" value="Page&lt;br&gt;Store" style="ellipse;whiteSpace=wrap;html=1;aspect=fixed;fillColor=#ffe6cc;strokeColor=#d79b00;" parent="1" vertex="1">
          <mxGeometry x="5" y="285" width="90" height="90" as="geometry"/>
        </mxCell>
        <mxCell id="FRVTPdvZiZSE1ToP57z7-7" value="" style="rounded=0;whiteSpace=wrap;html=1;fillColor=#d5e8d4;strokeColor=#82b366;" parent="1" vertex="1">
          <mxGeometry x="-50" y="30" width="20" height="20" as="geometry"/>
        </mxCell>
        <mxCell id="FRVTPdvZiZSE1ToP57z7-8" value="Stateless" style="text;html=1;strokeColor=none;fillColor=none;align=left;verticalAlign=middle;whiteSpace=wrap;rounded=0;" parent="1" vertex="1">
          <mxGeometry x="-20" y="30" width="40" height="20" as="geometry"/>
        </mxCell>
        <mxCell id="FRVTPdvZiZSE1ToP57z7-9" value="" style="rounded=0;whiteSpace=wrap;html=1;fillColor=#f8cecc;strokeColor=#b85450;" parent="1" vertex="1">
          <mxGeometry x="-50" y="60" width="20" height="20" as="geometry"/>
        </mxCell>
        <mxCell id="FRVTPdvZiZSE1ToP57z7-10" value="Stateful" style="text;html=1;strokeColor=none;fillColor=none;align=left;verticalAlign=middle;whiteSpace=wrap;rounded=0;" parent="1" vertex="1">
          <mxGeometry x="-20" y="60" width="40" height="20" as="geometry"/>
        </mxCell>
        <mxCell id="FRVTPdvZiZSE1ToP57z7-11" value="build(viewService,dispatch)" style="rounded=1;whiteSpace=wrap;html=1;align=center;" parent="1" vertex="1">
          <mxGeometry x="-22.5" y="412.5" width="165" height="30" as="geometry"/>
        </mxCell>
        <mxCell id="FRVTPdvZiZSE1ToP57z7-12" value="" style="shape=flexArrow;endArrow=classic;html=1;" parent="1" edge="1">
          <mxGeometry width="50" height="50" relative="1" as="geometry">
            <mxPoint x="180" y="231" as="sourcePoint"/>
            <mxPoint x="250" y="231" as="targetPoint"/>
            <Array as="points">
              <mxPoint x="210" y="231"/>
            </Array>
          </mxGeometry>
        </mxCell>
        <mxCell id="FRVTPdvZiZSE1ToP57z7-15" value="" style="shape=flexArrow;endArrow=classic;html=1;" parent="1" edge="1">
          <mxGeometry width="50" height="50" relative="1" as="geometry">
            <mxPoint x="183" y="454" as="sourcePoint"/>
            <mxPoint x="253" y="454" as="targetPoint"/>
            <Array as="points">
              <mxPoint x="213" y="454"/>
            </Array>
          </mxGeometry>
        </mxCell>
        <mxCell id="FRVTPdvZiZSE1ToP57z7-17" value="StatelessComponent" style="text;html=1;strokeColor=none;fillColor=none;align=center;verticalAlign=middle;whiteSpace=wrap;rounded=0;" parent="1" vertex="1">
          <mxGeometry x="260" y="140" width="120" height="20" as="geometry"/>
        </mxCell>
        <mxCell id="FRVTPdvZiZSE1ToP57z7-18" value="Page/Component&lt;br&gt;Store" style="ellipse;whiteSpace=wrap;html=1;aspect=fixed;fillColor=#ffe6cc;strokeColor=#d79b00;" parent="1" vertex="1">
          <mxGeometry x="280" y="200" width="100" height="100" as="geometry"/>
        </mxCell>
        <mxCell id="FRVTPdvZiZSE1ToP57z7-19" value="excrete(components)" style="rounded=1;whiteSpace=wrap;html=1;align=center;" parent="1" vertex="1">
          <mxGeometry x="-22.5" y="523" width="165" height="30" as="geometry"/>
        </mxCell>
        <mxCell id="FRVTPdvZiZSE1ToP57z7-20" value="build(viewService,dispatch)" style="rounded=1;whiteSpace=wrap;html=1;align=center;" parent="1" vertex="1">
          <mxGeometry x="440" y="180" width="200" height="30" as="geometry"/>
        </mxCell>
        <mxCell id="FRVTPdvZiZSE1ToP57z7-24" value="" style="html=1;dashed=0;whitespace=wrap;align=left;fillColor=#f8cecc;strokeColor=#b85450;" parent="1" vertex="1">
          <mxGeometry x="-40" y="580" width="200" height="108" as="geometry"/>
        </mxCell>
        <mxCell id="FRVTPdvZiZSE1ToP57z7-25" value="Mixin生命周期&amp;nbsp;&amp;nbsp;" style="text;html=1;strokeColor=none;fillColor=none;align=center;verticalAlign=middle;whiteSpace=wrap;rounded=0;" parent="1" vertex="1">
          <mxGeometry x="-40" y="590" width="90" height="20" as="geometry"/>
        </mxCell>
        <mxCell id="FRVTPdvZiZSE1ToP57z7-26" value="_StatefulWidget" style="text;html=1;strokeColor=none;fillColor=none;align=center;verticalAlign=middle;whiteSpace=wrap;rounded=0;" parent="1" vertex="1">
          <mxGeometry x="40" y="628" width="40" height="20" as="geometry"/>
        </mxCell>
        <mxCell id="FRVTPdvZiZSE1ToP57z7-27" value="" style="rounded=0;whiteSpace=wrap;html=1;align=left;fillColor=#f5f5f5;strokeColor=#666666;fontColor=#333333;" parent="1" vertex="1">
          <mxGeometry x="261" y="325" width="420" height="240" as="geometry"/>
        </mxCell>
        <mxCell id="FRVTPdvZiZSE1ToP57z7-28" value="StatefulComponent" style="text;html=1;strokeColor=none;fillColor=none;align=center;verticalAlign=middle;whiteSpace=wrap;rounded=0;" parent="1" vertex="1">
          <mxGeometry x="245" y="325" width="150" height="20" as="geometry"/>
        </mxCell>
        <mxCell id="FRVTPdvZiZSE1ToP57z7-34" value="StoreProvider" style="text;html=1;strokeColor=none;fillColor=none;align=center;verticalAlign=middle;whiteSpace=wrap;rounded=0;" parent="1" vertex="1">
          <mxGeometry x="272" y="170" width="77" height="20" as="geometry"/>
        </mxCell>
        <mxCell id="FRVTPdvZiZSE1ToP57z7-35" value="" style="rounded=0;whiteSpace=wrap;html=1;align=left;fillColor=#f8cecc;strokeColor=#b85450;" parent="1" vertex="1">
          <mxGeometry x="340" y="355" width="330" height="205" as="geometry"/>
        </mxCell>
        <mxCell id="FRVTPdvZiZSE1ToP57z7-36" value="StoreBuilder" style="text;html=1;strokeColor=none;fillColor=none;align=center;verticalAlign=middle;whiteSpace=wrap;rounded=0;" parent="1" vertex="1">
          <mxGeometry x="349" y="355" width="61" height="20" as="geometry"/>
        </mxCell>
        <mxCell id="FRVTPdvZiZSE1ToP57z7-38" value="LifecycleInterface" style="rounded=1;whiteSpace=wrap;html=1;align=center;" parent="1" vertex="1">
          <mxGeometry x="490" y="363" width="120" height="30" as="geometry"/>
        </mxCell>
        <mxCell id="FRVTPdvZiZSE1ToP57z7-30" value="Page/Component&lt;br&gt;Store" style="ellipse;whiteSpace=wrap;html=1;aspect=fixed;fillColor=#ffe6cc;strokeColor=#d79b00;" parent="1" vertex="1">
          <mxGeometry x="350" y="403" width="100" height="100" as="geometry"/>
        </mxCell>
        <mxCell id="FRVTPdvZiZSE1ToP57z7-31" value="生命周期" style="ellipse;shape=doubleEllipse;html=1;dashed=0;whitespace=wrap;aspect=fixed;align=left;" parent="1" vertex="1">
          <mxGeometry x="270" y="382.5" width="60" height="60" as="geometry"/>
        </mxCell>
        <mxCell id="FRVTPdvZiZSE1ToP57z7-42" value="convertFunction" style="rounded=1;whiteSpace=wrap;html=1;align=center;" parent="1" vertex="1">
          <mxGeometry x="490" y="420" width="120" height="30" as="geometry"/>
        </mxCell>
        <mxCell id="FRVTPdvZiZSE1ToP57z7-43" value="initState" style="rounded=1;whiteSpace=wrap;html=1;align=center;" parent="1" vertex="1">
          <mxGeometry x="490" y="473" width="120" height="30" as="geometry"/>
        </mxCell>
        <mxCell id="FRVTPdvZiZSE1ToP57z7-44" value="build(viewService,dispatch,state)" style="rounded=1;whiteSpace=wrap;html=1;align=center;" parent="1" vertex="1">
          <mxGeometry x="450" y="523" width="200" height="30" as="geometry"/>
        </mxCell>
        <mxCell id="FRVTPdvZiZSE1ToP57z7-48" value="StoreProvider" style="text;html=1;strokeColor=none;fillColor=none;align=center;verticalAlign=middle;whiteSpace=wrap;rounded=0;" parent="1" vertex="1">
          <mxGeometry x="-30" y="225" width="60" height="20" as="geometry"/>
        </mxCell>
        <mxCell id="FRVTPdvZiZSE1ToP57z7-51" value="" style="rounded=0;whiteSpace=wrap;html=1;align=left;fillColor=#f5f5f5;strokeColor=#666666;fontColor=#333333;" parent="1" vertex="1">
          <mxGeometry x="261" y="580" width="420" height="175" as="geometry"/>
        </mxCell>
        <mxCell id="FRVTPdvZiZSE1ToP57z7-52" value="StatefulFastComponent" style="text;html=1;strokeColor=none;fillColor=none;align=center;verticalAlign=middle;whiteSpace=wrap;rounded=0;" parent="1" vertex="1">
          <mxGeometry x="279" y="580" width="101" height="20" as="geometry"/>
        </mxCell>
        <mxCell id="FRVTPdvZiZSE1ToP57z7-53" value="" style="rounded=0;whiteSpace=wrap;html=1;align=left;fillColor=#f8cecc;strokeColor=#b85450;" parent="1" vertex="1">
          <mxGeometry x="340" y="610" width="330" height="140" as="geometry"/>
        </mxCell>
        <mxCell id="FRVTPdvZiZSE1ToP57z7-54" value="StoreBuilder" style="text;html=1;strokeColor=none;fillColor=none;align=center;verticalAlign=middle;whiteSpace=wrap;rounded=0;" parent="1" vertex="1">
          <mxGeometry x="349" y="610" width="61" height="20" as="geometry"/>
        </mxCell>
        <mxCell id="FRVTPdvZiZSE1ToP57z7-55" value="LifecycleInterface" style="rounded=1;whiteSpace=wrap;html=1;align=center;" parent="1" vertex="1">
          <mxGeometry x="490" y="618" width="120" height="30" as="geometry"/>
        </mxCell>
        <mxCell id="FRVTPdvZiZSE1ToP57z7-56" value="Page/Component&lt;br&gt;Store" style="ellipse;whiteSpace=wrap;html=1;aspect=fixed;fillColor=#ffe6cc;strokeColor=#d79b00;" parent="1" vertex="1">
          <mxGeometry x="346" y="637.5" width="100" height="100" as="geometry"/>
        </mxCell>
        <mxCell id="FRVTPdvZiZSE1ToP57z7-57" value="生命周期" style="ellipse;shape=doubleEllipse;html=1;dashed=0;whitespace=wrap;aspect=fixed;align=left;" parent="1" vertex="1">
          <mxGeometry x="270" y="637.5" width="60" height="60" as="geometry"/>
        </mxCell>
        <mxCell id="FRVTPdvZiZSE1ToP57z7-58" value="shouldUpdate" style="rounded=1;whiteSpace=wrap;html=1;align=center;" parent="1" vertex="1">
          <mxGeometry x="490" y="658" width="120" height="30" as="geometry"/>
        </mxCell>
        <mxCell id="FRVTPdvZiZSE1ToP57z7-61" value="build(viewService,dispatch,state)" style="rounded=1;whiteSpace=wrap;html=1;align=center;" parent="1" vertex="1">
          <mxGeometry x="463.5" y="697.5" width="200" height="30" as="geometry"/>
        </mxCell>
        <mxCell id="FRVTPdvZiZSE1ToP57z7-63" value="" style="shape=flexArrow;endArrow=classic;html=1;" parent="1" edge="1">
          <mxGeometry width="50" height="50" relative="1" as="geometry">
            <mxPoint x="180" y="672" as="sourcePoint"/>
            <mxPoint x="250" y="672" as="targetPoint"/>
            <Array as="points">
              <mxPoint x="210" y="672"/>
            </Array>
          </mxGeometry>
        </mxCell>
        <mxCell id="0mHmHjYfeUdzyArpti4x-2" value="" style="html=1;dashed=0;whitespace=wrap;align=left;fillColor=#f8cecc;strokeColor=#b85450;" parent="1" vertex="1">
          <mxGeometry x="420" y="225" width="240" height="80" as="geometry"/>
        </mxCell>
        <mxCell id="0mHmHjYfeUdzyArpti4x-3" value="Mixin生命周期&amp;nbsp;&amp;nbsp;" style="text;html=1;strokeColor=none;fillColor=none;align=center;verticalAlign=middle;whiteSpace=wrap;rounded=0;" parent="1" vertex="1">
          <mxGeometry x="420" y="225" width="90" height="20" as="geometry"/>
        </mxCell>
        <mxCell id="0mHmHjYfeUdzyArpti4x-4" value="_StatefulWidget" style="text;html=1;strokeColor=none;fillColor=none;align=center;verticalAlign=middle;whiteSpace=wrap;rounded=0;" parent="1" vertex="1">
          <mxGeometry x="515" y="255" width="40" height="20" as="geometry"/>
        </mxCell>
      </root>
    </mxGraphModel>
  </diagram>
  <diagram id="y7kNTyYfwzoSWA2la5if" name="第 2 页">
    <mxGraphModel dx="946" dy="590" grid="1" gridSize="10" guides="1" tooltips="1" connect="1" arrows="1" fold="1" page="1" pageScale="1" pageWidth="827" pageHeight="1169" math="0" shadow="0">
      <root>
        <mxCell id="qsbEbSv6QJS1maoP6Jw4-0"/>
        <mxCell id="qsbEbSv6QJS1maoP6Jw4-1" parent="qsbEbSv6QJS1maoP6Jw4-0"/>
        <mxCell id="qsbEbSv6QJS1maoP6Jw4-38" value="View" style="rounded=1;whiteSpace=wrap;html=1;align=center;" parent="qsbEbSv6QJS1maoP6Jw4-1" vertex="1">
          <mxGeometry x="190" y="160" width="80" height="30" as="geometry"/>
        </mxCell>
        <mxCell id="qsbEbSv6QJS1maoP6Jw4-39" value="Store" style="rounded=1;whiteSpace=wrap;html=1;align=center;" parent="qsbEbSv6QJS1maoP6Jw4-1" vertex="1">
          <mxGeometry x="330" y="160" width="80" height="30" as="geometry"/>
        </mxCell>
        <mxCell id="qsbEbSv6QJS1maoP6Jw4-40" value="" style="endArrow=classic;html=1;exitX=1;exitY=0.5;exitDx=0;exitDy=0;entryX=0;entryY=0.5;entryDx=0;entryDy=0;" parent="qsbEbSv6QJS1maoP6Jw4-1" source="qsbEbSv6QJS1maoP6Jw4-38" target="qsbEbSv6QJS1maoP6Jw4-39" edge="1">
          <mxGeometry width="50" height="50" relative="1" as="geometry">
            <mxPoint x="270" y="300" as="sourcePoint"/>
            <mxPoint x="320" y="250" as="targetPoint"/>
          </mxGeometry>
        </mxCell>
        <mxCell id="qsbEbSv6QJS1maoP6Jw4-41" value="Action" style="text;html=1;strokeColor=none;fillColor=none;align=center;verticalAlign=middle;whiteSpace=wrap;rounded=0;" parent="qsbEbSv6QJS1maoP6Jw4-1" vertex="1">
          <mxGeometry x="280" y="150" width="40" height="20" as="geometry"/>
        </mxCell>
        <mxCell id="qsbEbSv6QJS1maoP6Jw4-42" value="Bloc" style="rounded=1;whiteSpace=wrap;html=1;align=center;" parent="qsbEbSv6QJS1maoP6Jw4-1" vertex="1">
          <mxGeometry x="480" y="160" width="80" height="30" as="geometry"/>
        </mxCell>
        <mxCell id="qsbEbSv6QJS1maoP6Jw4-43" value="" style="endArrow=classic;html=1;exitX=1;exitY=0.5;exitDx=0;exitDy=0;entryX=0;entryY=0.5;entryDx=0;entryDy=0;" parent="qsbEbSv6QJS1maoP6Jw4-1" source="qsbEbSv6QJS1maoP6Jw4-39" target="qsbEbSv6QJS1maoP6Jw4-42" edge="1">
          <mxGeometry width="50" height="50" relative="1" as="geometry">
            <mxPoint x="470" y="290" as="sourcePoint"/>
            <mxPoint x="520" y="240" as="targetPoint"/>
          </mxGeometry>
        </mxCell>
        <mxCell id="qsbEbSv6QJS1maoP6Jw4-44" value="Dispatch" style="text;html=1;strokeColor=none;fillColor=none;align=center;verticalAlign=middle;whiteSpace=wrap;rounded=0;" parent="qsbEbSv6QJS1maoP6Jw4-1" vertex="1">
          <mxGeometry x="420" y="150" width="40" height="20" as="geometry"/>
        </mxCell>
        <mxCell id="qsbEbSv6QJS1maoP6Jw4-45" value="EffectSubject" style="rounded=1;whiteSpace=wrap;html=1;align=center;" parent="qsbEbSv6QJS1maoP6Jw4-1" vertex="1">
          <mxGeometry x="630" y="235" width="90" height="30" as="geometry"/>
        </mxCell>
        <mxCell id="qsbEbSv6QJS1maoP6Jw4-46" value="" style="endArrow=classic;html=1;exitX=1;exitY=0.5;exitDx=0;exitDy=0;entryX=0;entryY=0.5;entryDx=0;entryDy=0;" parent="qsbEbSv6QJS1maoP6Jw4-1" source="qsbEbSv6QJS1maoP6Jw4-69" target="qsbEbSv6QJS1maoP6Jw4-45" edge="1">
          <mxGeometry width="50" height="50" relative="1" as="geometry">
            <mxPoint x="520" y="300" as="sourcePoint"/>
            <mxPoint x="570" y="250" as="targetPoint"/>
          </mxGeometry>
        </mxCell>
        <mxCell id="qsbEbSv6QJS1maoP6Jw4-48" value="ReducerSubject" style="rounded=1;whiteSpace=wrap;html=1;align=center;" parent="qsbEbSv6QJS1maoP6Jw4-1" vertex="1">
          <mxGeometry x="465" y="300" width="110" height="30" as="geometry"/>
        </mxCell>
        <mxCell id="qsbEbSv6QJS1maoP6Jw4-49" value="" style="endArrow=classic;html=1;exitX=0.5;exitY=1;exitDx=0;exitDy=0;entryX=0.5;entryY=0;entryDx=0;entryDy=0;" parent="qsbEbSv6QJS1maoP6Jw4-1" source="qsbEbSv6QJS1maoP6Jw4-42" target="qsbEbSv6QJS1maoP6Jw4-69" edge="1">
          <mxGeometry width="50" height="50" relative="1" as="geometry">
            <mxPoint x="640" y="300" as="sourcePoint"/>
            <mxPoint x="690" y="250" as="targetPoint"/>
          </mxGeometry>
        </mxCell>
        <mxCell id="qsbEbSv6QJS1maoP6Jw4-50" value="Add" style="text;html=1;strokeColor=none;fillColor=none;align=center;verticalAlign=middle;whiteSpace=wrap;rounded=0;" parent="qsbEbSv6QJS1maoP6Jw4-1" vertex="1">
          <mxGeometry x="520" y="200" width="40" height="20" as="geometry"/>
        </mxCell>
        <mxCell id="qsbEbSv6QJS1maoP6Jw4-51" value="do-effect" style="rounded=1;whiteSpace=wrap;html=1;align=center;" parent="qsbEbSv6QJS1maoP6Jw4-1" vertex="1">
          <mxGeometry x="770" y="235" width="80" height="30" as="geometry"/>
        </mxCell>
        <mxCell id="qsbEbSv6QJS1maoP6Jw4-52" value="" style="endArrow=classic;html=1;exitX=0;exitY=0.5;exitDx=0;exitDy=0;entryX=1;entryY=0.5;entryDx=0;entryDy=0;dashed=1;" parent="qsbEbSv6QJS1maoP6Jw4-1" source="qsbEbSv6QJS1maoP6Jw4-51" target="qsbEbSv6QJS1maoP6Jw4-45" edge="1">
          <mxGeometry width="50" height="50" relative="1" as="geometry">
            <mxPoint x="710" y="320" as="sourcePoint"/>
            <mxPoint x="760" y="270" as="targetPoint"/>
          </mxGeometry>
        </mxCell>
        <mxCell id="qsbEbSv6QJS1maoP6Jw4-53" value="Listen" style="text;html=1;strokeColor=none;fillColor=none;align=center;verticalAlign=middle;whiteSpace=wrap;rounded=0;" parent="qsbEbSv6QJS1maoP6Jw4-1" vertex="1">
          <mxGeometry x="730" y="220" width="40" height="20" as="geometry"/>
        </mxCell>
        <mxCell id="qsbEbSv6QJS1maoP6Jw4-54" value="do-reducer" style="rounded=1;whiteSpace=wrap;html=1;align=center;" parent="qsbEbSv6QJS1maoP6Jw4-1" vertex="1">
          <mxGeometry x="480" y="375" width="80" height="30" as="geometry"/>
        </mxCell>
        <mxCell id="qsbEbSv6QJS1maoP6Jw4-55" value="" style="endArrow=classic;html=1;dashed=1;exitX=0.5;exitY=0;exitDx=0;exitDy=0;entryX=0.5;entryY=1;entryDx=0;entryDy=0;" parent="qsbEbSv6QJS1maoP6Jw4-1" source="qsbEbSv6QJS1maoP6Jw4-54" target="qsbEbSv6QJS1maoP6Jw4-48" edge="1">
          <mxGeometry width="50" height="50" relative="1" as="geometry">
            <mxPoint x="680" y="310" as="sourcePoint"/>
            <mxPoint x="630" y="360" as="targetPoint"/>
          </mxGeometry>
        </mxCell>
        <mxCell id="qsbEbSv6QJS1maoP6Jw4-56" value="StateSubject" style="rounded=1;whiteSpace=wrap;html=1;align=center;" parent="qsbEbSv6QJS1maoP6Jw4-1" vertex="1">
          <mxGeometry x="175" y="375" width="110" height="30" as="geometry"/>
        </mxCell>
        <mxCell id="qsbEbSv6QJS1maoP6Jw4-57" value="" style="endArrow=classic;html=1;exitX=0;exitY=0.5;exitDx=0;exitDy=0;entryX=0;entryY=0.5;entryDx=0;entryDy=0;" parent="qsbEbSv6QJS1maoP6Jw4-1" source="qsbEbSv6QJS1maoP6Jw4-54" target="qsbEbSv6QJS1maoP6Jw4-65" edge="1">
          <mxGeometry width="50" height="50" relative="1" as="geometry">
            <mxPoint x="470" y="535" as="sourcePoint"/>
            <mxPoint x="410" y="390" as="targetPoint"/>
          </mxGeometry>
        </mxCell>
        <mxCell id="qsbEbSv6QJS1maoP6Jw4-58" value="State" style="text;html=1;strokeColor=none;fillColor=none;align=center;verticalAlign=middle;whiteSpace=wrap;rounded=0;" parent="qsbEbSv6QJS1maoP6Jw4-1" vertex="1">
          <mxGeometry x="430" y="365" width="40" height="20" as="geometry"/>
        </mxCell>
        <mxCell id="qsbEbSv6QJS1maoP6Jw4-59" value="Listen" style="text;html=1;strokeColor=none;fillColor=none;align=center;verticalAlign=middle;whiteSpace=wrap;rounded=0;" parent="qsbEbSv6QJS1maoP6Jw4-1" vertex="1">
          <mxGeometry x="520" y="340" width="40" height="20" as="geometry"/>
        </mxCell>
        <mxCell id="qsbEbSv6QJS1maoP6Jw4-60" value="" style="endArrow=classic;html=1;dashed=1;exitX=0.5;exitY=1;exitDx=0;exitDy=0;entryX=0.5;entryY=0;entryDx=0;entryDy=0;" parent="qsbEbSv6QJS1maoP6Jw4-1" source="qsbEbSv6QJS1maoP6Jw4-38" target="qsbEbSv6QJS1maoP6Jw4-56" edge="1">
          <mxGeometry width="50" height="50" relative="1" as="geometry">
            <mxPoint x="260" y="230" as="sourcePoint"/>
            <mxPoint x="260" y="180" as="targetPoint"/>
          </mxGeometry>
        </mxCell>
        <mxCell id="qsbEbSv6QJS1maoP6Jw4-61" value="Listen" style="text;html=1;strokeColor=none;fillColor=none;align=center;verticalAlign=middle;whiteSpace=wrap;rounded=0;" parent="qsbEbSv6QJS1maoP6Jw4-1" vertex="1">
          <mxGeometry x="180" y="275" width="40" height="20" as="geometry"/>
        </mxCell>
        <mxCell id="qsbEbSv6QJS1maoP6Jw4-65" value="" style="triangle;whiteSpace=wrap;html=1;align=center;dashed=1;direction=west;" parent="qsbEbSv6QJS1maoP6Jw4-1" vertex="1">
          <mxGeometry x="354" y="350" width="60" height="80" as="geometry"/>
        </mxCell>
        <mxCell id="qsbEbSv6QJS1maoP6Jw4-66" value="" style="endArrow=classic;html=1;exitX=1;exitY=0.5;exitDx=0;exitDy=0;entryX=1;entryY=0.5;entryDx=0;entryDy=0;" parent="qsbEbSv6QJS1maoP6Jw4-1" source="qsbEbSv6QJS1maoP6Jw4-65" target="qsbEbSv6QJS1maoP6Jw4-56" edge="1">
          <mxGeometry width="50" height="50" relative="1" as="geometry">
            <mxPoint x="320" y="485" as="sourcePoint"/>
            <mxPoint x="370" y="435" as="targetPoint"/>
          </mxGeometry>
        </mxCell>
        <mxCell id="qsbEbSv6QJS1maoP6Jw4-67" value="ConvertState" style="text;html=1;strokeColor=none;fillColor=none;align=center;verticalAlign=middle;whiteSpace=wrap;rounded=0;dashed=1;" parent="qsbEbSv6QJS1maoP6Jw4-1" vertex="1">
          <mxGeometry x="303" y="365" width="40" height="20" as="geometry"/>
        </mxCell>
        <mxCell id="qsbEbSv6QJS1maoP6Jw4-68" value="convert" style="text;html=1;strokeColor=none;fillColor=none;align=center;verticalAlign=middle;whiteSpace=wrap;rounded=0;dashed=1;" parent="qsbEbSv6QJS1maoP6Jw4-1" vertex="1">
          <mxGeometry x="370" y="380" width="40" height="20" as="geometry"/>
        </mxCell>
        <mxCell id="qsbEbSv6QJS1maoP6Jw4-69" value="middleware" style="rounded=1;whiteSpace=wrap;html=1;align=center;dashed=1;" parent="qsbEbSv6QJS1maoP6Jw4-1" vertex="1">
          <mxGeometry x="465" y="235" width="110" height="30" as="geometry"/>
        </mxCell>
        <mxCell id="qsbEbSv6QJS1maoP6Jw4-70" value="" style="endArrow=classic;html=1;exitX=0.5;exitY=1;exitDx=0;exitDy=0;entryX=0.5;entryY=0;entryDx=0;entryDy=0;" parent="qsbEbSv6QJS1maoP6Jw4-1" source="qsbEbSv6QJS1maoP6Jw4-69" target="qsbEbSv6QJS1maoP6Jw4-48" edge="1">
          <mxGeometry width="50" height="50" relative="1" as="geometry">
            <mxPoint x="630" y="390" as="sourcePoint"/>
            <mxPoint x="680" y="340" as="targetPoint"/>
          </mxGeometry>
        </mxCell>
        <mxCell id="qsbEbSv6QJS1maoP6Jw4-73" value="do-things" style="rounded=1;whiteSpace=wrap;html=1;align=center;" parent="qsbEbSv6QJS1maoP6Jw4-1" vertex="1">
          <mxGeometry x="770" y="160" width="80" height="30" as="geometry"/>
        </mxCell>
        <mxCell id="qsbEbSv6QJS1maoP6Jw4-74" value="" style="endArrow=classic;html=1;exitX=0.5;exitY=0;exitDx=0;exitDy=0;entryX=0.5;entryY=1;entryDx=0;entryDy=0;" parent="qsbEbSv6QJS1maoP6Jw4-1" source="qsbEbSv6QJS1maoP6Jw4-51" target="qsbEbSv6QJS1maoP6Jw4-73" edge="1">
          <mxGeometry width="50" height="50" relative="1" as="geometry">
            <mxPoint x="910" y="110" as="sourcePoint"/>
            <mxPoint x="860" y="160" as="targetPoint"/>
          </mxGeometry>
        </mxCell>
        <mxCell id="qsbEbSv6QJS1maoP6Jw4-75" value="" style="endArrow=classic;html=1;exitX=0;exitY=0.5;exitDx=0;exitDy=0;entryX=1;entryY=0.5;entryDx=0;entryDy=0;dashed=1;" parent="qsbEbSv6QJS1maoP6Jw4-1" source="qsbEbSv6QJS1maoP6Jw4-73" target="qsbEbSv6QJS1maoP6Jw4-42" edge="1">
          <mxGeometry width="50" height="50" relative="1" as="geometry">
            <mxPoint x="560" y="100" as="sourcePoint"/>
            <mxPoint x="610" y="50" as="targetPoint"/>
            <Array as="points">
              <mxPoint x="650" y="175"/>
            </Array>
          </mxGeometry>
        </mxCell>
        <mxCell id="qsbEbSv6QJS1maoP6Jw4-76" value="Dispatch" style="text;html=1;strokeColor=none;fillColor=none;align=center;verticalAlign=middle;whiteSpace=wrap;rounded=0;dashed=1;" parent="qsbEbSv6QJS1maoP6Jw4-1" vertex="1">
          <mxGeometry x="630" y="150" width="80" height="20" as="geometry"/>
        </mxCell>
        <mxCell id="HFtI6hd0ZtV4zDmhUwHt-0" value="" style="ellipse;html=1;shape=endState;fillColor=#000000;strokeColor=#ff0000;align=center;" parent="qsbEbSv6QJS1maoP6Jw4-1" vertex="1">
          <mxGeometry x="930" y="160" width="30" height="30" as="geometry"/>
        </mxCell>
        <mxCell id="HFtI6hd0ZtV4zDmhUwHt-1" value="" style="endArrow=classic;html=1;exitX=1;exitY=0.5;exitDx=0;exitDy=0;entryX=0;entryY=0.5;entryDx=0;entryDy=0;" parent="qsbEbSv6QJS1maoP6Jw4-1" source="qsbEbSv6QJS1maoP6Jw4-73" target="HFtI6hd0ZtV4zDmhUwHt-0" edge="1">
          <mxGeometry width="50" height="50" relative="1" as="geometry">
            <mxPoint x="940" y="320" as="sourcePoint"/>
            <mxPoint x="990" y="270" as="targetPoint"/>
          </mxGeometry>
        </mxCell>
      </root>
    </mxGraphModel>
  </diagram>
  <diagram id="qwfqDyPQm-nB42jgbz6W" name="第 3 页">
    <mxGraphModel dx="946" dy="590" grid="1" gridSize="10" guides="1" tooltips="1" connect="1" arrows="1" fold="1" page="1" pageScale="1" pageWidth="827" pageHeight="1169" math="0" shadow="0">
      <root>
        <mxCell id="HLsGFf-wZLprEUpYd7m8-0"/>
        <mxCell id="HLsGFf-wZLprEUpYd7m8-1" parent="HLsGFf-wZLprEUpYd7m8-0"/>
        <mxCell id="HLsGFf-wZLprEUpYd7m8-2" value="Store" style="rounded=1;whiteSpace=wrap;html=1;fillColor=#d80073;strokeColor=#A50040;fontColor=#ffffff;" vertex="1" parent="HLsGFf-wZLprEUpYd7m8-1">
          <mxGeometry x="240" y="220" width="120" height="60" as="geometry"/>
        </mxCell>
        <mxCell id="HLsGFf-wZLprEUpYd7m8-3" value="ActionCreator" style="rounded=1;whiteSpace=wrap;html=1;fillColor=#1ba1e2;strokeColor=#006EAF;fontColor=#ffffff;" vertex="1" parent="HLsGFf-wZLprEUpYd7m8-1">
          <mxGeometry y="220" width="120" height="60" as="geometry"/>
        </mxCell>
        <mxCell id="HLsGFf-wZLprEUpYd7m8-4" value="" style="endArrow=classic;html=1;exitX=1;exitY=0.25;exitDx=0;exitDy=0;entryX=0;entryY=0.25;entryDx=0;entryDy=0;fillColor=#f0a30a;strokeColor=#BD7000;strokeWidth=2;" edge="1" parent="HLsGFf-wZLprEUpYd7m8-1" source="HLsGFf-wZLprEUpYd7m8-3" target="HLsGFf-wZLprEUpYd7m8-2">
          <mxGeometry width="50" height="50" relative="1" as="geometry">
            <mxPoint x="140" y="450" as="sourcePoint"/>
            <mxPoint x="190" y="400" as="targetPoint"/>
          </mxGeometry>
        </mxCell>
        <mxCell id="HLsGFf-wZLprEUpYd7m8-5" value="Reducer" style="rounded=1;whiteSpace=wrap;html=1;fillColor=#a20025;strokeColor=#6F0000;fontColor=#ffffff;" vertex="1" parent="HLsGFf-wZLprEUpYd7m8-1">
          <mxGeometry x="480" y="220" width="120" height="60" as="geometry"/>
        </mxCell>
        <mxCell id="HLsGFf-wZLprEUpYd7m8-6" value="Effect" style="rounded=1;whiteSpace=wrap;html=1;fillColor=#6a00ff;strokeColor=#3700CC;fontColor=#ffffff;" vertex="1" parent="HLsGFf-wZLprEUpYd7m8-1">
          <mxGeometry x="240" y="70" width="120" height="60" as="geometry"/>
        </mxCell>
        <mxCell id="HLsGFf-wZLprEUpYd7m8-7" value="" style="endArrow=classic;html=1;exitX=1;exitY=0.25;exitDx=0;exitDy=0;entryX=0;entryY=0.25;entryDx=0;entryDy=0;fillColor=#f0a30a;strokeColor=#BD7000;strokeWidth=2;" edge="1" parent="HLsGFf-wZLprEUpYd7m8-1" source="HLsGFf-wZLprEUpYd7m8-2" target="HLsGFf-wZLprEUpYd7m8-5">
          <mxGeometry width="50" height="50" relative="1" as="geometry">
            <mxPoint x="510" y="430" as="sourcePoint"/>
            <mxPoint x="560" y="380" as="targetPoint"/>
          </mxGeometry>
        </mxCell>
        <mxCell id="HLsGFf-wZLprEUpYd7m8-8" value="" style="endArrow=classic;html=1;exitX=0;exitY=0.75;exitDx=0;exitDy=0;entryX=1;entryY=0.75;entryDx=0;entryDy=0;fillColor=#f0a30a;strokeColor=#BD7000;strokeWidth=2;" edge="1" parent="HLsGFf-wZLprEUpYd7m8-1" source="HLsGFf-wZLprEUpYd7m8-5" target="HLsGFf-wZLprEUpYd7m8-2">
          <mxGeometry width="50" height="50" relative="1" as="geometry">
            <mxPoint x="330" y="430" as="sourcePoint"/>
            <mxPoint x="380" y="380" as="targetPoint"/>
          </mxGeometry>
        </mxCell>
        <mxCell id="HLsGFf-wZLprEUpYd7m8-9" value="" style="endArrow=classic;html=1;exitX=0.5;exitY=0;exitDx=0;exitDy=0;entryX=0.5;entryY=1;entryDx=0;entryDy=0;strokeWidth=2;fillColor=#f0a30a;strokeColor=#BD7000;" edge="1" parent="HLsGFf-wZLprEUpYd7m8-1" source="HLsGFf-wZLprEUpYd7m8-2" target="HLsGFf-wZLprEUpYd7m8-6">
          <mxGeometry width="50" height="50" relative="1" as="geometry">
            <mxPoint x="170" y="350" as="sourcePoint"/>
            <mxPoint x="210" y="400" as="targetPoint"/>
          </mxGeometry>
        </mxCell>
        <mxCell id="HLsGFf-wZLprEUpYd7m8-10" value="&lt;font color=&quot;#ff6633&quot;&gt;previousState，Action&lt;/font&gt;" style="text;html=1;strokeColor=none;fillColor=none;align=center;verticalAlign=middle;whiteSpace=wrap;rounded=0;" vertex="1" parent="HLsGFf-wZLprEUpYd7m8-1">
          <mxGeometry x="350" y="200" width="147" height="20" as="geometry"/>
        </mxCell>
        <mxCell id="HLsGFf-wZLprEUpYd7m8-11" value="&lt;font color=&quot;#ff6633&quot;&gt;nextState&lt;/font&gt;" style="text;html=1;strokeColor=none;fillColor=none;align=center;verticalAlign=middle;whiteSpace=wrap;rounded=0;" vertex="1" parent="HLsGFf-wZLprEUpYd7m8-1">
          <mxGeometry x="404" y="270" width="40" height="20" as="geometry"/>
        </mxCell>
        <mxCell id="HLsGFf-wZLprEUpYd7m8-12" value="Component" style="rounded=1;whiteSpace=wrap;html=1;fillColor=#008a00;strokeColor=#005700;fontColor=#ffffff;" vertex="1" parent="HLsGFf-wZLprEUpYd7m8-1">
          <mxGeometry x="240" y="370" width="120" height="60" as="geometry"/>
        </mxCell>
        <mxCell id="HLsGFf-wZLprEUpYd7m8-13" value="" style="endArrow=classic;html=1;exitX=0.5;exitY=1;exitDx=0;exitDy=0;entryX=0.5;entryY=0;entryDx=0;entryDy=0;strokeWidth=2;fillColor=#f0a30a;strokeColor=#BD7000;" edge="1" parent="HLsGFf-wZLprEUpYd7m8-1" source="HLsGFf-wZLprEUpYd7m8-2" target="HLsGFf-wZLprEUpYd7m8-12">
          <mxGeometry width="50" height="50" relative="1" as="geometry">
            <mxPoint x="110" y="420" as="sourcePoint"/>
            <mxPoint x="160" y="370" as="targetPoint"/>
          </mxGeometry>
        </mxCell>
        <mxCell id="HLsGFf-wZLprEUpYd7m8-14" value="&lt;font color=&quot;#ff6633&quot;&gt;previousState，Action&lt;/font&gt;" style="text;html=1;strokeColor=none;fillColor=none;align=center;verticalAlign=middle;whiteSpace=wrap;rounded=0;" vertex="1" parent="HLsGFf-wZLprEUpYd7m8-1">
          <mxGeometry x="160" y="170" width="147" height="20" as="geometry"/>
        </mxCell>
        <mxCell id="HLsGFf-wZLprEUpYd7m8-15" value="&lt;font color=&quot;#ff6633&quot;&gt;Dispatch（Action）&lt;/font&gt;" style="text;html=1;strokeColor=none;fillColor=none;align=center;verticalAlign=middle;whiteSpace=wrap;rounded=0;" vertex="1" parent="HLsGFf-wZLprEUpYd7m8-1">
          <mxGeometry x="150" y="200" width="60" height="20" as="geometry"/>
        </mxCell>
        <mxCell id="HLsGFf-wZLprEUpYd7m8-18" value="&lt;font color=&quot;#ff6633&quot;&gt;State&lt;/font&gt;" style="text;html=1;strokeColor=none;fillColor=none;align=center;verticalAlign=middle;whiteSpace=wrap;rounded=0;" vertex="1" parent="HLsGFf-wZLprEUpYd7m8-1">
          <mxGeometry x="310" y="330" width="40" height="20" as="geometry"/>
        </mxCell>
        <mxCell id="HLsGFf-wZLprEUpYd7m8-19" value="" style="endArrow=none;dashed=1;html=1;exitX=0;exitY=0.25;exitDx=0;exitDy=0;entryX=1;entryY=0.25;entryDx=0;entryDy=0;" edge="1" parent="HLsGFf-wZLprEUpYd7m8-1" source="HLsGFf-wZLprEUpYd7m8-2" target="HLsGFf-wZLprEUpYd7m8-2">
          <mxGeometry width="50" height="50" relative="1" as="geometry">
            <mxPoint x="130" y="380" as="sourcePoint"/>
            <mxPoint x="180" y="330" as="targetPoint"/>
          </mxGeometry>
        </mxCell>
        <mxCell id="HLsGFf-wZLprEUpYd7m8-20" value="" style="endArrow=none;dashed=1;html=1;strokeWidth=1;entryX=0.5;entryY=0;entryDx=0;entryDy=0;" edge="1" parent="HLsGFf-wZLprEUpYd7m8-1">
          <mxGeometry width="50" height="50" relative="1" as="geometry">
            <mxPoint x="300" y="235" as="sourcePoint"/>
            <mxPoint x="300" y="215" as="targetPoint"/>
          </mxGeometry>
        </mxCell>
      </root>
    </mxGraphModel>
  </diagram>
  <diagram id="KtggN0JiRKkYSf0pKlr0" name="第 4 页">
    <mxGraphModel dx="946" dy="590" grid="1" gridSize="10" guides="1" tooltips="1" connect="1" arrows="1" fold="1" page="1" pageScale="1" pageWidth="827" pageHeight="1169" math="0" shadow="0">
      <root>
        <mxCell id="95VdwM_hJizCH-POy_MH-0"/>
        <mxCell id="95VdwM_hJizCH-POy_MH-1" parent="95VdwM_hJizCH-POy_MH-0"/>
        <mxCell id="95VdwM_hJizCH-POy_MH-2" value="View" style="rounded=1;whiteSpace=wrap;html=1;" vertex="1" parent="95VdwM_hJizCH-POy_MH-1">
          <mxGeometry x="60" y="230" width="120" height="60" as="geometry"/>
        </mxCell>
        <mxCell id="95VdwM_hJizCH-POy_MH-3" value="Dispatch" style="rounded=1;whiteSpace=wrap;html=1;" vertex="1" parent="95VdwM_hJizCH-POy_MH-1">
          <mxGeometry x="290" y="230" width="120" height="60" as="geometry"/>
        </mxCell>
        <mxCell id="95VdwM_hJizCH-POy_MH-4" value="" style="endArrow=classic;html=1;strokeWidth=1;exitX=1;exitY=0.5;exitDx=0;exitDy=0;entryX=0;entryY=0.5;entryDx=0;entryDy=0;" edge="1" parent="95VdwM_hJizCH-POy_MH-1" source="95VdwM_hJizCH-POy_MH-2" target="95VdwM_hJizCH-POy_MH-3">
          <mxGeometry width="50" height="50" relative="1" as="geometry">
            <mxPoint x="200" y="400" as="sourcePoint"/>
            <mxPoint x="250" y="350" as="targetPoint"/>
          </mxGeometry>
        </mxCell>
        <mxCell id="95VdwM_hJizCH-POy_MH-5" value="click" style="text;html=1;strokeColor=none;fillColor=none;align=center;verticalAlign=middle;whiteSpace=wrap;rounded=0;" vertex="1" parent="95VdwM_hJizCH-POy_MH-1">
          <mxGeometry x="210" y="230" width="40" height="20" as="geometry"/>
        </mxCell>
        <mxCell id="95VdwM_hJizCH-POy_MH-6" value="Reducer" style="rounded=1;whiteSpace=wrap;html=1;" vertex="1" parent="95VdwM_hJizCH-POy_MH-1">
          <mxGeometry x="510" y="230" width="120" height="60" as="geometry"/>
        </mxCell>
        <mxCell id="95VdwM_hJizCH-POy_MH-7" value="" style="endArrow=classic;html=1;strokeWidth=1;exitX=1;exitY=0.5;exitDx=0;exitDy=0;entryX=0;entryY=0.5;entryDx=0;entryDy=0;" edge="1" parent="95VdwM_hJizCH-POy_MH-1" source="95VdwM_hJizCH-POy_MH-3" target="95VdwM_hJizCH-POy_MH-6">
          <mxGeometry width="50" height="50" relative="1" as="geometry">
            <mxPoint x="420" y="310" as="sourcePoint"/>
            <mxPoint x="210" y="420" as="targetPoint"/>
          </mxGeometry>
        </mxCell>
        <mxCell id="95VdwM_hJizCH-POy_MH-8" value="action" style="text;html=1;strokeColor=none;fillColor=none;align=center;verticalAlign=middle;whiteSpace=wrap;rounded=0;" vertex="1" parent="95VdwM_hJizCH-POy_MH-1">
          <mxGeometry x="440" y="230" width="40" height="20" as="geometry"/>
        </mxCell>
        <mxCell id="95VdwM_hJizCH-POy_MH-9" value="view" style="rounded=1;whiteSpace=wrap;html=1;" vertex="1" parent="95VdwM_hJizCH-POy_MH-1">
          <mxGeometry x="720" y="230" width="120" height="60" as="geometry"/>
        </mxCell>
        <mxCell id="95VdwM_hJizCH-POy_MH-10" value="" style="endArrow=classic;html=1;strokeWidth=1;exitX=1;exitY=0.5;exitDx=0;exitDy=0;entryX=0;entryY=0.5;entryDx=0;entryDy=0;dashed=1;" edge="1" parent="95VdwM_hJizCH-POy_MH-1" source="95VdwM_hJizCH-POy_MH-6" target="95VdwM_hJizCH-POy_MH-9">
          <mxGeometry width="50" height="50" relative="1" as="geometry">
            <mxPoint x="390" y="430" as="sourcePoint"/>
            <mxPoint x="670" y="260" as="targetPoint"/>
          </mxGeometry>
        </mxCell>
        <mxCell id="95VdwM_hJizCH-POy_MH-11" value="State" style="text;html=1;strokeColor=none;fillColor=none;align=center;verticalAlign=middle;whiteSpace=wrap;rounded=0;" vertex="1" parent="95VdwM_hJizCH-POy_MH-1">
          <mxGeometry x="650" y="230" width="40" height="20" as="geometry"/>
        </mxCell>
      </root>
    </mxGraphModel>
  </diagram>
  <diagram id="Ny7Z4tJ-Fgr-xXDPz9Ns" name="第 5 页">
    <mxGraphModel dx="946" dy="590" grid="1" gridSize="10" guides="1" tooltips="1" connect="1" arrows="1" fold="1" page="1" pageScale="1" pageWidth="827" pageHeight="1169" math="0" shadow="0">
      <root>
        <mxCell id="H1c9-3W14WJfdaMKAokw-0"/>
        <mxCell id="H1c9-3W14WJfdaMKAokw-1" parent="H1c9-3W14WJfdaMKAokw-0"/>
        <mxCell id="H1c9-3W14WJfdaMKAokw-20" value="" style="rounded=0;whiteSpace=wrap;html=1;dashed=1;" vertex="1" parent="H1c9-3W14WJfdaMKAokw-1">
          <mxGeometry x="530" y="190" width="560" height="140" as="geometry"/>
        </mxCell>
        <mxCell id="H1c9-3W14WJfdaMKAokw-2" value="View" style="rounded=1;whiteSpace=wrap;html=1;" vertex="1" parent="H1c9-3W14WJfdaMKAokw-1">
          <mxGeometry x="320" y="240" width="120" height="60" as="geometry"/>
        </mxCell>
        <mxCell id="H1c9-3W14WJfdaMKAokw-3" value="md1" style="rounded=1;whiteSpace=wrap;html=1;" vertex="1" parent="H1c9-3W14WJfdaMKAokw-1">
          <mxGeometry x="550" y="240" width="70" height="60" as="geometry"/>
        </mxCell>
        <mxCell id="H1c9-3W14WJfdaMKAokw-4" value="" style="endArrow=classic;html=1;strokeWidth=1;exitX=1;exitY=0.5;exitDx=0;exitDy=0;entryX=0;entryY=0.5;entryDx=0;entryDy=0;" edge="1" source="H1c9-3W14WJfdaMKAokw-2" target="H1c9-3W14WJfdaMKAokw-3" parent="H1c9-3W14WJfdaMKAokw-1">
          <mxGeometry width="50" height="50" relative="1" as="geometry">
            <mxPoint x="460" y="410" as="sourcePoint"/>
            <mxPoint x="510" y="360" as="targetPoint"/>
          </mxGeometry>
        </mxCell>
        <mxCell id="H1c9-3W14WJfdaMKAokw-5" value="click" style="text;html=1;strokeColor=none;fillColor=none;align=center;verticalAlign=middle;whiteSpace=wrap;rounded=0;" vertex="1" parent="H1c9-3W14WJfdaMKAokw-1">
          <mxGeometry x="470" y="240" width="40" height="20" as="geometry"/>
        </mxCell>
        <mxCell id="H1c9-3W14WJfdaMKAokw-6" value="md2" style="rounded=1;whiteSpace=wrap;html=1;" vertex="1" parent="H1c9-3W14WJfdaMKAokw-1">
          <mxGeometry x="660" y="240" width="70" height="60" as="geometry"/>
        </mxCell>
        <mxCell id="H1c9-3W14WJfdaMKAokw-7" value="" style="endArrow=classic;html=1;strokeWidth=1;exitX=1;exitY=0.5;exitDx=0;exitDy=0;entryX=0;entryY=0.5;entryDx=0;entryDy=0;" edge="1" source="H1c9-3W14WJfdaMKAokw-3" target="H1c9-3W14WJfdaMKAokw-6" parent="H1c9-3W14WJfdaMKAokw-1">
          <mxGeometry width="50" height="50" relative="1" as="geometry">
            <mxPoint x="680" y="320" as="sourcePoint"/>
            <mxPoint x="470" y="430" as="targetPoint"/>
          </mxGeometry>
        </mxCell>
        <mxCell id="H1c9-3W14WJfdaMKAokw-12" value="..." style="rounded=1;whiteSpace=wrap;html=1;" vertex="1" parent="H1c9-3W14WJfdaMKAokw-1">
          <mxGeometry x="770" y="240" width="70" height="60" as="geometry"/>
        </mxCell>
        <mxCell id="H1c9-3W14WJfdaMKAokw-13" value="" style="endArrow=classic;html=1;strokeWidth=1;exitX=1;exitY=0.5;exitDx=0;exitDy=0;" edge="1" parent="H1c9-3W14WJfdaMKAokw-1" source="H1c9-3W14WJfdaMKAokw-6" target="H1c9-3W14WJfdaMKAokw-12">
          <mxGeometry width="50" height="50" relative="1" as="geometry">
            <mxPoint x="740" y="290" as="sourcePoint"/>
            <mxPoint x="790" y="390" as="targetPoint"/>
          </mxGeometry>
        </mxCell>
        <mxCell id="H1c9-3W14WJfdaMKAokw-14" value="md1" style="rounded=1;whiteSpace=wrap;html=1;" vertex="1" parent="H1c9-3W14WJfdaMKAokw-1">
          <mxGeometry x="890" y="240" width="70" height="60" as="geometry"/>
        </mxCell>
        <mxCell id="H1c9-3W14WJfdaMKAokw-15" value="" style="endArrow=classic;html=1;strokeWidth=1;exitX=1;exitY=0.5;exitDx=0;exitDy=0;entryX=0;entryY=0.5;entryDx=0;entryDy=0;" edge="1" source="H1c9-3W14WJfdaMKAokw-14" target="H1c9-3W14WJfdaMKAokw-16" parent="H1c9-3W14WJfdaMKAokw-1">
          <mxGeometry width="50" height="50" relative="1" as="geometry">
            <mxPoint x="1020" y="320" as="sourcePoint"/>
            <mxPoint x="810" y="430" as="targetPoint"/>
          </mxGeometry>
        </mxCell>
        <mxCell id="H1c9-3W14WJfdaMKAokw-16" value="Dispatch" style="rounded=1;whiteSpace=wrap;html=1;" vertex="1" parent="H1c9-3W14WJfdaMKAokw-1">
          <mxGeometry x="1000" y="240" width="70" height="60" as="geometry"/>
        </mxCell>
        <mxCell id="H1c9-3W14WJfdaMKAokw-17" value="" style="endArrow=classic;html=1;strokeWidth=1;exitX=1;exitY=0.5;exitDx=0;exitDy=0;entryX=0;entryY=0.5;entryDx=0;entryDy=0;" edge="1" source="H1c9-3W14WJfdaMKAokw-16" parent="H1c9-3W14WJfdaMKAokw-1" target="H1c9-3W14WJfdaMKAokw-22">
          <mxGeometry width="50" height="50" relative="1" as="geometry">
            <mxPoint x="1080" y="290" as="sourcePoint"/>
            <mxPoint x="1160" y="270" as="targetPoint"/>
          </mxGeometry>
        </mxCell>
        <mxCell id="H1c9-3W14WJfdaMKAokw-18" value="" style="endArrow=classic;html=1;strokeWidth=1;exitX=1;exitY=0.5;exitDx=0;exitDy=0;entryX=0;entryY=0.5;entryDx=0;entryDy=0;" edge="1" parent="H1c9-3W14WJfdaMKAokw-1" source="H1c9-3W14WJfdaMKAokw-12" target="H1c9-3W14WJfdaMKAokw-14">
          <mxGeometry width="50" height="50" relative="1" as="geometry">
            <mxPoint x="800" y="470" as="sourcePoint"/>
            <mxPoint x="840" y="470" as="targetPoint"/>
          </mxGeometry>
        </mxCell>
        <mxCell id="H1c9-3W14WJfdaMKAokw-21" value="action" style="text;html=1;strokeColor=none;fillColor=none;align=center;verticalAlign=middle;whiteSpace=wrap;rounded=0;dashed=1;" vertex="1" parent="H1c9-3W14WJfdaMKAokw-1">
          <mxGeometry x="1100" y="240" width="40" height="20" as="geometry"/>
        </mxCell>
        <mxCell id="H1c9-3W14WJfdaMKAokw-22" value="Reducer" style="rounded=1;whiteSpace=wrap;html=1;dashed=1;" vertex="1" parent="H1c9-3W14WJfdaMKAokw-1">
          <mxGeometry x="1160" y="240" width="120" height="60" as="geometry"/>
        </mxCell>
        <mxCell id="H1c9-3W14WJfdaMKAokw-23" value="&amp;nbsp;new Dispatch" style="text;html=1;strokeColor=none;fillColor=none;align=center;verticalAlign=middle;whiteSpace=wrap;rounded=0;dashed=1;" vertex="1" parent="H1c9-3W14WJfdaMKAokw-1">
          <mxGeometry x="740" y="200" width="120" height="20" as="geometry"/>
        </mxCell>
      </root>
    </mxGraphModel>
  </diagram>
  <diagram id="g2fSq-JOUmjMLlns4vyv" name="第 6 页">
    <mxGraphModel dx="946" dy="590" grid="1" gridSize="10" guides="1" tooltips="1" connect="1" arrows="1" fold="1" page="1" pageScale="1" pageWidth="827" pageHeight="1169" math="0" shadow="0">
      <root>
        <mxCell id="z2S9Gc_hAYdRRIpUhFaK-0"/>
        <mxCell id="z2S9Gc_hAYdRRIpUhFaK-1" parent="z2S9Gc_hAYdRRIpUhFaK-0"/>
      </root>
    </mxGraphModel>
  </diagram>
  <diagram id="Ow6b-D90np-b4tknjBJ0" name="第 7 页">
    <mxGraphModel dx="946" dy="590" grid="1" gridSize="10" guides="1" tooltips="1" connect="1" arrows="1" fold="1" page="1" pageScale="1" pageWidth="827" pageHeight="1169" math="0" shadow="0">
      <root>
        <mxCell id="8wlnFVSGe00K73YT1prM-0"/>
        <mxCell id="8wlnFVSGe00K73YT1prM-1" parent="8wlnFVSGe00K73YT1prM-0"/>
        <mxCell id="eBXWmFGo1g0peE4alOtr-3" value="Component" style="rounded=1;whiteSpace=wrap;html=1;dashed=1;" vertex="1" parent="8wlnFVSGe00K73YT1prM-1">
          <mxGeometry x="590" y="40" width="120" height="60" as="geometry"/>
        </mxCell>
        <mxCell id="eBXWmFGo1g0peE4alOtr-4" value="Component" style="rounded=1;whiteSpace=wrap;html=1;dashed=1;" vertex="1" parent="8wlnFVSGe00K73YT1prM-1">
          <mxGeometry x="590" y="120" width="120" height="60" as="geometry"/>
        </mxCell>
        <mxCell id="eBXWmFGo1g0peE4alOtr-5" value="Component" style="rounded=1;whiteSpace=wrap;html=1;dashed=1;" vertex="1" parent="8wlnFVSGe00K73YT1prM-1">
          <mxGeometry x="590" y="200" width="120" height="60" as="geometry"/>
        </mxCell>
        <mxCell id="eBXWmFGo1g0peE4alOtr-6" value="" style="endArrow=classic;html=1;strokeWidth=1;exitX=1;exitY=0.25;exitDx=0;exitDy=0;entryX=0;entryY=0.5;entryDx=0;entryDy=0;" edge="1" parent="8wlnFVSGe00K73YT1prM-1" source="8wlnFVSGe00K73YT1prM-2" target="eBXWmFGo1g0peE4alOtr-3">
          <mxGeometry width="50" height="50" relative="1" as="geometry">
            <mxPoint x="500" y="90" as="sourcePoint"/>
            <mxPoint x="550" y="40" as="targetPoint"/>
          </mxGeometry>
        </mxCell>
        <mxCell id="eBXWmFGo1g0peE4alOtr-7" value="" style="endArrow=classic;html=1;strokeWidth=1;exitX=1;exitY=0.5;exitDx=0;exitDy=0;entryX=0;entryY=0.5;entryDx=0;entryDy=0;" edge="1" parent="8wlnFVSGe00K73YT1prM-1" source="8wlnFVSGe00K73YT1prM-2" target="eBXWmFGo1g0peE4alOtr-4">
          <mxGeometry width="50" height="50" relative="1" as="geometry">
            <mxPoint x="550" y="390" as="sourcePoint"/>
            <mxPoint x="600" y="340" as="targetPoint"/>
          </mxGeometry>
        </mxCell>
        <mxCell id="eBXWmFGo1g0peE4alOtr-8" value="" style="endArrow=classic;html=1;strokeWidth=1;exitX=1;exitY=0.75;exitDx=0;exitDy=0;entryX=0;entryY=0.5;entryDx=0;entryDy=0;" edge="1" parent="8wlnFVSGe00K73YT1prM-1" source="8wlnFVSGe00K73YT1prM-2" target="eBXWmFGo1g0peE4alOtr-5">
          <mxGeometry width="50" height="50" relative="1" as="geometry">
            <mxPoint x="610" y="380" as="sourcePoint"/>
            <mxPoint x="660" y="330" as="targetPoint"/>
          </mxGeometry>
        </mxCell>
        <mxCell id="jCDbXzfslrpHGpojhMP7-0" value="" style="group" vertex="1" connectable="0" parent="8wlnFVSGe00K73YT1prM-1">
          <mxGeometry x="220" y="120" width="250" height="270" as="geometry"/>
        </mxCell>
        <mxCell id="eBXWmFGo1g0peE4alOtr-2" value="" style="group" vertex="1" connectable="0" parent="jCDbXzfslrpHGpojhMP7-0">
          <mxGeometry width="250" height="270" as="geometry"/>
        </mxCell>
        <mxCell id="8wlnFVSGe00K73YT1prM-2" value="Page" style="rounded=0;whiteSpace=wrap;html=1;" vertex="1" parent="eBXWmFGo1g0peE4alOtr-2">
          <mxGeometry width="250" height="60" as="geometry"/>
        </mxCell>
        <mxCell id="8wlnFVSGe00K73YT1prM-3" value="View" style="rounded=0;whiteSpace=wrap;html=1;" vertex="1" parent="eBXWmFGo1g0peE4alOtr-2">
          <mxGeometry y="70" width="120" height="60" as="geometry"/>
        </mxCell>
        <mxCell id="8wlnFVSGe00K73YT1prM-4" value="State" style="rounded=0;whiteSpace=wrap;html=1;" vertex="1" parent="eBXWmFGo1g0peE4alOtr-2">
          <mxGeometry x="130" y="70" width="120" height="60" as="geometry"/>
        </mxCell>
        <mxCell id="8wlnFVSGe00K73YT1prM-5" value="Reducer" style="rounded=0;whiteSpace=wrap;html=1;" vertex="1" parent="eBXWmFGo1g0peE4alOtr-2">
          <mxGeometry y="140" width="120" height="60" as="geometry"/>
        </mxCell>
        <mxCell id="8wlnFVSGe00K73YT1prM-6" value="Effect" style="rounded=0;whiteSpace=wrap;html=1;" vertex="1" parent="eBXWmFGo1g0peE4alOtr-2">
          <mxGeometry x="130" y="140" width="120" height="60" as="geometry"/>
        </mxCell>
        <mxCell id="8wlnFVSGe00K73YT1prM-8" value="Action" style="rounded=0;whiteSpace=wrap;html=1;" vertex="1" parent="eBXWmFGo1g0peE4alOtr-2">
          <mxGeometry y="210" width="120" height="60" as="geometry"/>
        </mxCell>
        <mxCell id="8wlnFVSGe00K73YT1prM-9" value="Store" style="rounded=0;whiteSpace=wrap;html=1;" vertex="1" parent="eBXWmFGo1g0peE4alOtr-2">
          <mxGeometry x="130" y="210" width="120" height="60" as="geometry"/>
        </mxCell>
      </root>
    </mxGraphModel>
  </diagram>
  <diagram id="PECntFj1Ea9HvbPJoSZy" name="第 8 页">
    <mxGraphModel dx="946" dy="1759" grid="1" gridSize="10" guides="1" tooltips="1" connect="1" arrows="1" fold="1" page="1" pageScale="1" pageWidth="827" pageHeight="1169" math="0" shadow="0">
      <root>
        <mxCell id="fqcudKtOHRjCO0kQjM6B-0"/>
        <mxCell id="fqcudKtOHRjCO0kQjM6B-1" parent="fqcudKtOHRjCO0kQjM6B-0"/>
        <mxCell id="GDnxArKbTf9GiOXxVAqI-49" value="" style="group;fontColor=#FFFFFF;" vertex="1" connectable="0" parent="fqcudKtOHRjCO0kQjM6B-1">
          <mxGeometry x="110" y="50" width="570" height="596.6700000000001" as="geometry"/>
        </mxCell>
        <mxCell id="GDnxArKbTf9GiOXxVAqI-0" value="" style="group" vertex="1" connectable="0" parent="GDnxArKbTf9GiOXxVAqI-49">
          <mxGeometry y="227.50000000000003" width="237.49999999999997" height="292.5" as="geometry"/>
        </mxCell>
        <mxCell id="GDnxArKbTf9GiOXxVAqI-2" value="Page" style="rounded=0;whiteSpace=wrap;html=1;fillColor=#6d8764;strokeColor=#3A5431;fontColor=#ffffff;" vertex="1" parent="GDnxArKbTf9GiOXxVAqI-0">
          <mxGeometry width="237.49999999999997" height="65" as="geometry"/>
        </mxCell>
        <mxCell id="GDnxArKbTf9GiOXxVAqI-3" value="View" style="rounded=0;whiteSpace=wrap;html=1;" vertex="1" parent="GDnxArKbTf9GiOXxVAqI-0">
          <mxGeometry y="75.83333333333334" width="114" height="65" as="geometry"/>
        </mxCell>
        <mxCell id="GDnxArKbTf9GiOXxVAqI-4" value="State" style="rounded=0;whiteSpace=wrap;html=1;fillColor=#008a00;strokeColor=#005700;fontColor=#ffffff;" vertex="1" parent="GDnxArKbTf9GiOXxVAqI-0">
          <mxGeometry x="123.49999999999999" y="75.83333333333334" width="114" height="65" as="geometry"/>
        </mxCell>
        <mxCell id="GDnxArKbTf9GiOXxVAqI-5" value="Reducer" style="rounded=0;whiteSpace=wrap;html=1;" vertex="1" parent="GDnxArKbTf9GiOXxVAqI-0">
          <mxGeometry y="151.66666666666669" width="114" height="65" as="geometry"/>
        </mxCell>
        <mxCell id="GDnxArKbTf9GiOXxVAqI-6" value="Effect" style="rounded=0;whiteSpace=wrap;html=1;" vertex="1" parent="GDnxArKbTf9GiOXxVAqI-0">
          <mxGeometry x="123.49999999999999" y="151.66666666666669" width="114" height="65" as="geometry"/>
        </mxCell>
        <mxCell id="GDnxArKbTf9GiOXxVAqI-7" value="Action" style="rounded=0;whiteSpace=wrap;html=1;" vertex="1" parent="GDnxArKbTf9GiOXxVAqI-0">
          <mxGeometry y="227.50000000000003" width="114" height="65" as="geometry"/>
        </mxCell>
        <mxCell id="GDnxArKbTf9GiOXxVAqI-8" value="Store" style="rounded=0;whiteSpace=wrap;html=1;fillColor=#008a00;strokeColor=#005700;fontColor=#ffffff;" vertex="1" parent="GDnxArKbTf9GiOXxVAqI-0">
          <mxGeometry x="123.49999999999999" y="227.50000000000003" width="114" height="65" as="geometry"/>
        </mxCell>
        <mxCell id="GDnxArKbTf9GiOXxVAqI-9" value="" style="endArrow=classic;html=1;strokeWidth=1;exitX=1;exitY=0.25;exitDx=0;exitDy=0;entryX=0;entryY=0.5;entryDx=0;entryDy=0;" edge="1" parent="GDnxArKbTf9GiOXxVAqI-49" source="GDnxArKbTf9GiOXxVAqI-2" target="GDnxArKbTf9GiOXxVAqI-10">
          <mxGeometry width="50" height="50" relative="1" as="geometry">
            <mxPoint x="332.49999999999994" y="205.83333333333337" as="sourcePoint"/>
            <mxPoint x="380" y="151.66666666666669" as="targetPoint"/>
          </mxGeometry>
        </mxCell>
        <mxCell id="GDnxArKbTf9GiOXxVAqI-47" value="" style="endArrow=classic;html=1;strokeWidth=1;exitX=1;exitY=0.25;exitDx=0;exitDy=0;entryX=0;entryY=0.5;entryDx=0;entryDy=0;" edge="1" parent="GDnxArKbTf9GiOXxVAqI-49" source="GDnxArKbTf9GiOXxVAqI-2" target="GDnxArKbTf9GiOXxVAqI-29">
          <mxGeometry width="50" height="50" relative="1" as="geometry">
            <mxPoint x="294.5" y="357.5" as="sourcePoint"/>
            <mxPoint x="342" y="303.33333333333337" as="targetPoint"/>
          </mxGeometry>
        </mxCell>
        <mxCell id="GDnxArKbTf9GiOXxVAqI-48" value="" style="endArrow=classic;html=1;strokeWidth=1;exitX=1;exitY=0.75;exitDx=0;exitDy=0;entryX=0;entryY=0.5;entryDx=0;entryDy=0;" edge="1" parent="GDnxArKbTf9GiOXxVAqI-49" source="GDnxArKbTf9GiOXxVAqI-2" target="GDnxArKbTf9GiOXxVAqI-39">
          <mxGeometry width="50" height="50" relative="1" as="geometry">
            <mxPoint x="303.99999999999994" y="357.5" as="sourcePoint"/>
            <mxPoint x="351.5" y="303.33333333333337" as="targetPoint"/>
          </mxGeometry>
        </mxCell>
        <mxCell id="GDnxArKbTf9GiOXxVAqI-57" value="" style="group" vertex="1" connectable="0" parent="GDnxArKbTf9GiOXxVAqI-49">
          <mxGeometry x="389.99999999999994" y="6.336666666666673" width="161.5" height="130" as="geometry"/>
        </mxCell>
        <mxCell id="GDnxArKbTf9GiOXxVAqI-26" value="" style="group" vertex="1" connectable="0" parent="GDnxArKbTf9GiOXxVAqI-57">
          <mxGeometry width="161.5" height="130" as="geometry"/>
        </mxCell>
        <mxCell id="GDnxArKbTf9GiOXxVAqI-23" value="" style="group" vertex="1" connectable="0" parent="GDnxArKbTf9GiOXxVAqI-26">
          <mxGeometry width="161.5" height="130" as="geometry"/>
        </mxCell>
        <mxCell id="GDnxArKbTf9GiOXxVAqI-10" value="Component" style="rounded=0;whiteSpace=wrap;html=1;fillColor=#e51400;strokeColor=#B20000;fontColor=#ffffff;" vertex="1" parent="GDnxArKbTf9GiOXxVAqI-23">
          <mxGeometry width="161.5" height="43.333333333333336" as="geometry"/>
        </mxCell>
        <mxCell id="GDnxArKbTf9GiOXxVAqI-11" value="" style="rounded=0;whiteSpace=wrap;html=1;fillColor=#008a00;strokeColor=#005700;fontColor=#ffffff;" vertex="1" parent="GDnxArKbTf9GiOXxVAqI-23">
          <mxGeometry y="54.16666666666667" width="47.5" height="32.5" as="geometry"/>
        </mxCell>
        <mxCell id="GDnxArKbTf9GiOXxVAqI-14" value="&lt;span style=&quot;white-space: normal&quot;&gt;View&lt;/span&gt;" style="rounded=0;whiteSpace=wrap;html=1;" vertex="1" parent="GDnxArKbTf9GiOXxVAqI-23">
          <mxGeometry x="57" y="54.16666666666667" width="47.5" height="32.5" as="geometry"/>
        </mxCell>
        <mxCell id="GDnxArKbTf9GiOXxVAqI-15" value="&lt;span style=&quot;white-space: normal&quot;&gt;Reducer&lt;/span&gt;" style="rounded=0;whiteSpace=wrap;html=1;dashed=1;strokeColor=#FF6633;" vertex="1" parent="GDnxArKbTf9GiOXxVAqI-23">
          <mxGeometry x="114" y="54.16666666666667" width="47.5" height="32.5" as="geometry"/>
        </mxCell>
        <mxCell id="GDnxArKbTf9GiOXxVAqI-16" value="&lt;span style=&quot;white-space: normal&quot;&gt;Store&lt;/span&gt;" style="rounded=0;whiteSpace=wrap;html=1;dashed=1;strokeColor=#005700;fillColor=#008a00;fontColor=#ffffff;" vertex="1" parent="GDnxArKbTf9GiOXxVAqI-23">
          <mxGeometry y="97.5" width="47.5" height="32.5" as="geometry"/>
        </mxCell>
        <mxCell id="GDnxArKbTf9GiOXxVAqI-17" value="&lt;span style=&quot;white-space: normal&quot;&gt;Action&lt;/span&gt;" style="rounded=0;whiteSpace=wrap;html=1;dashed=1;strokeColor=#FF6633;" vertex="1" parent="GDnxArKbTf9GiOXxVAqI-23">
          <mxGeometry x="57" y="97.5" width="47.5" height="32.5" as="geometry"/>
        </mxCell>
        <mxCell id="GDnxArKbTf9GiOXxVAqI-18" value="&lt;span style=&quot;white-space: normal&quot;&gt;Effect&lt;/span&gt;" style="rounded=0;whiteSpace=wrap;html=1;dashed=1;strokeColor=#FF6633;" vertex="1" parent="GDnxArKbTf9GiOXxVAqI-23">
          <mxGeometry x="114" y="97.5" width="47.5" height="32.5" as="geometry"/>
        </mxCell>
        <mxCell id="GDnxArKbTf9GiOXxVAqI-25" value="&lt;font color=&quot;#ffffff&quot;&gt;State&lt;/font&gt;" style="text;html=1;strokeColor=none;fillColor=none;align=center;verticalAlign=middle;whiteSpace=wrap;rounded=0;" vertex="1" parent="GDnxArKbTf9GiOXxVAqI-23">
          <mxGeometry x="4.749999999999999" y="59.58333333333334" width="37.99999999999999" height="21.666666666666668" as="geometry"/>
        </mxCell>
        <mxCell id="GDnxArKbTf9GiOXxVAqI-27" value="" style="group" vertex="1" connectable="0" parent="GDnxArKbTf9GiOXxVAqI-49">
          <mxGeometry x="389.99999999999994" y="162.50333333333336" width="161.5" height="130" as="geometry"/>
        </mxCell>
        <mxCell id="GDnxArKbTf9GiOXxVAqI-28" value="" style="group" vertex="1" connectable="0" parent="GDnxArKbTf9GiOXxVAqI-27">
          <mxGeometry width="161.5" height="130" as="geometry"/>
        </mxCell>
        <mxCell id="GDnxArKbTf9GiOXxVAqI-29" value="Component" style="rounded=0;whiteSpace=wrap;html=1;fillColor=#fa6800;strokeColor=#C73500;fontColor=#ffffff;" vertex="1" parent="GDnxArKbTf9GiOXxVAqI-28">
          <mxGeometry width="161.5" height="43.333333333333336" as="geometry"/>
        </mxCell>
        <mxCell id="GDnxArKbTf9GiOXxVAqI-30" value="" style="rounded=0;whiteSpace=wrap;html=1;fillColor=#d80073;strokeColor=#A50040;fontColor=#ffffff;" vertex="1" parent="GDnxArKbTf9GiOXxVAqI-28">
          <mxGeometry y="54.16666666666667" width="47.5" height="32.5" as="geometry"/>
        </mxCell>
        <mxCell id="GDnxArKbTf9GiOXxVAqI-31" value="&lt;span style=&quot;white-space: normal&quot;&gt;View&lt;/span&gt;" style="rounded=0;whiteSpace=wrap;html=1;" vertex="1" parent="GDnxArKbTf9GiOXxVAqI-28">
          <mxGeometry x="57" y="54.16666666666667" width="47.5" height="32.5" as="geometry"/>
        </mxCell>
        <mxCell id="GDnxArKbTf9GiOXxVAqI-32" value="&lt;span style=&quot;white-space: normal&quot;&gt;Reducer&lt;/span&gt;" style="rounded=0;whiteSpace=wrap;html=1;" vertex="1" parent="GDnxArKbTf9GiOXxVAqI-28">
          <mxGeometry x="114" y="54.16666666666667" width="47.5" height="32.5" as="geometry"/>
        </mxCell>
        <mxCell id="GDnxArKbTf9GiOXxVAqI-33" value="&lt;span style=&quot;white-space: normal&quot;&gt;Store&lt;/span&gt;" style="rounded=0;whiteSpace=wrap;html=1;fillColor=#d80073;strokeColor=#A50040;fontColor=#ffffff;" vertex="1" parent="GDnxArKbTf9GiOXxVAqI-28">
          <mxGeometry y="97.5" width="47.5" height="32.5" as="geometry"/>
        </mxCell>
        <mxCell id="GDnxArKbTf9GiOXxVAqI-34" value="&lt;span style=&quot;white-space: normal&quot;&gt;Action&lt;/span&gt;" style="rounded=0;whiteSpace=wrap;html=1;" vertex="1" parent="GDnxArKbTf9GiOXxVAqI-28">
          <mxGeometry x="57" y="97.5" width="47.5" height="32.5" as="geometry"/>
        </mxCell>
        <mxCell id="GDnxArKbTf9GiOXxVAqI-35" value="&lt;span style=&quot;white-space: normal&quot;&gt;Effect&lt;/span&gt;" style="rounded=0;whiteSpace=wrap;html=1;" vertex="1" parent="GDnxArKbTf9GiOXxVAqI-28">
          <mxGeometry x="114" y="97.5" width="47.5" height="32.5" as="geometry"/>
        </mxCell>
        <mxCell id="GDnxArKbTf9GiOXxVAqI-36" value="State" style="text;html=1;strokeColor=none;fillColor=none;align=center;verticalAlign=middle;whiteSpace=wrap;rounded=0;fontColor=#FFFFFF;" vertex="1" parent="GDnxArKbTf9GiOXxVAqI-28">
          <mxGeometry x="4.749999999999999" y="59.58333333333334" width="37.99999999999999" height="21.666666666666668" as="geometry"/>
        </mxCell>
        <mxCell id="GDnxArKbTf9GiOXxVAqI-37" value="" style="group" vertex="1" connectable="0" parent="GDnxArKbTf9GiOXxVAqI-49">
          <mxGeometry x="389.99999999999994" y="320.00000000000006" width="161.5" height="130" as="geometry"/>
        </mxCell>
        <mxCell id="GDnxArKbTf9GiOXxVAqI-38" value="" style="group" vertex="1" connectable="0" parent="GDnxArKbTf9GiOXxVAqI-37">
          <mxGeometry width="161.5" height="130" as="geometry"/>
        </mxCell>
        <mxCell id="GDnxArKbTf9GiOXxVAqI-39" value="Component" style="rounded=0;whiteSpace=wrap;html=1;fillColor=#f0a30a;strokeColor=#BD7000;fontColor=#ffffff;" vertex="1" parent="GDnxArKbTf9GiOXxVAqI-38">
          <mxGeometry width="161.5" height="43.333333333333336" as="geometry"/>
        </mxCell>
        <mxCell id="GDnxArKbTf9GiOXxVAqI-40" value="" style="rounded=0;whiteSpace=wrap;html=1;fillColor=#d80073;strokeColor=#A50040;fontColor=#ffffff;" vertex="1" parent="GDnxArKbTf9GiOXxVAqI-38">
          <mxGeometry y="54.16666666666667" width="47.5" height="32.5" as="geometry"/>
        </mxCell>
        <mxCell id="GDnxArKbTf9GiOXxVAqI-41" value="&lt;span style=&quot;white-space: normal&quot;&gt;View&lt;/span&gt;" style="rounded=0;whiteSpace=wrap;html=1;" vertex="1" parent="GDnxArKbTf9GiOXxVAqI-38">
          <mxGeometry x="57" y="54.16666666666667" width="47.5" height="32.5" as="geometry"/>
        </mxCell>
        <mxCell id="GDnxArKbTf9GiOXxVAqI-42" value="&lt;span style=&quot;white-space: normal&quot;&gt;Reducer&lt;/span&gt;" style="rounded=0;whiteSpace=wrap;html=1;strokeColor=#FF6633;" vertex="1" parent="GDnxArKbTf9GiOXxVAqI-38">
          <mxGeometry x="114" y="54.16666666666667" width="47.5" height="32.5" as="geometry"/>
        </mxCell>
        <mxCell id="GDnxArKbTf9GiOXxVAqI-43" value="&lt;span style=&quot;white-space: normal&quot;&gt;Store&lt;/span&gt;" style="rounded=0;whiteSpace=wrap;html=1;strokeColor=#005700;fillColor=#008a00;fontColor=#ffffff;" vertex="1" parent="GDnxArKbTf9GiOXxVAqI-38">
          <mxGeometry y="97.5" width="47.5" height="32.5" as="geometry"/>
        </mxCell>
        <mxCell id="GDnxArKbTf9GiOXxVAqI-44" value="&lt;span style=&quot;white-space: normal&quot;&gt;Action&lt;/span&gt;" style="rounded=0;whiteSpace=wrap;html=1;strokeColor=#FF6633;" vertex="1" parent="GDnxArKbTf9GiOXxVAqI-38">
          <mxGeometry x="57" y="97.5" width="47.5" height="32.5" as="geometry"/>
        </mxCell>
        <mxCell id="GDnxArKbTf9GiOXxVAqI-45" value="&lt;span style=&quot;white-space: normal&quot;&gt;Effect&lt;/span&gt;" style="rounded=0;whiteSpace=wrap;html=1;strokeColor=#FF6633;" vertex="1" parent="GDnxArKbTf9GiOXxVAqI-38">
          <mxGeometry x="114" y="97.5" width="47.5" height="32.5" as="geometry"/>
        </mxCell>
        <mxCell id="GDnxArKbTf9GiOXxVAqI-46" value="&lt;font color=&quot;#ffffff&quot;&gt;State&lt;/font&gt;" style="text;html=1;strokeColor=none;fillColor=none;align=center;verticalAlign=middle;whiteSpace=wrap;rounded=0;" vertex="1" parent="GDnxArKbTf9GiOXxVAqI-38">
          <mxGeometry x="4.749999999999999" y="59.58333333333334" width="37.99999999999999" height="21.666666666666668" as="geometry"/>
        </mxCell>
        <mxCell id="GDnxArKbTf9GiOXxVAqI-70" value="Translator" style="rounded=0;whiteSpace=wrap;html=1;strokeColor=#FF6633;fillColor=#FFFFFF;fontColor=#222222;" vertex="1" parent="GDnxArKbTf9GiOXxVAqI-49">
          <mxGeometry x="390" y="460" width="160" height="29" as="geometry"/>
        </mxCell>
        <mxCell id="GDnxArKbTf9GiOXxVAqI-60" value="Component" style="rounded=0;whiteSpace=wrap;html=1;fillColor=#e3c800;strokeColor=#B09500;fontColor=#ffffff;" vertex="1" parent="GDnxArKbTf9GiOXxVAqI-49">
          <mxGeometry x="390" y="510" width="161.5" height="43.333333333333336" as="geometry"/>
        </mxCell>
        <mxCell id="GDnxArKbTf9GiOXxVAqI-62" value="&lt;span style=&quot;white-space: normal&quot;&gt;View&lt;/span&gt;" style="rounded=0;whiteSpace=wrap;html=1;" vertex="1" parent="GDnxArKbTf9GiOXxVAqI-49">
          <mxGeometry x="390.75" y="564.1700000000001" width="160" height="32.5" as="geometry"/>
        </mxCell>
        <mxCell id="GDnxArKbTf9GiOXxVAqI-67" value="&lt;font color=&quot;#ffffff&quot;&gt;State&lt;/font&gt;" style="text;html=1;strokeColor=none;fillColor=none;align=center;verticalAlign=middle;whiteSpace=wrap;rounded=0;" vertex="1" parent="GDnxArKbTf9GiOXxVAqI-49">
          <mxGeometry x="404.75" y="569.5833333333334" width="37.99999999999999" height="21.666666666666668" as="geometry"/>
        </mxCell>
        <mxCell id="GDnxArKbTf9GiOXxVAqI-69" value="" style="endArrow=classic;html=1;fontColor=#222222;exitX=1;exitY=0.75;exitDx=0;exitDy=0;entryX=0;entryY=0.5;entryDx=0;entryDy=0;" edge="1" parent="GDnxArKbTf9GiOXxVAqI-49" source="GDnxArKbTf9GiOXxVAqI-2" target="GDnxArKbTf9GiOXxVAqI-60">
          <mxGeometry width="50" height="50" relative="1" as="geometry">
            <mxPoint x="650" y="410" as="sourcePoint"/>
            <mxPoint x="700" y="360" as="targetPoint"/>
          </mxGeometry>
        </mxCell>
        <mxCell id="GDnxArKbTf9GiOXxVAqI-51" value="Widget" style="rounded=0;whiteSpace=wrap;html=1;strokeColor=#222222;fontColor=#222222;" vertex="1" parent="fqcudKtOHRjCO0kQjM6B-1">
          <mxGeometry x="780" y="-10" width="120" height="46" as="geometry"/>
        </mxCell>
        <mxCell id="GDnxArKbTf9GiOXxVAqI-52" value="Widget" style="rounded=0;whiteSpace=wrap;html=1;strokeColor=#222222;fontColor=#222222;" vertex="1" parent="fqcudKtOHRjCO0kQjM6B-1">
          <mxGeometry x="780" y="54.17" width="120" height="46" as="geometry"/>
        </mxCell>
        <mxCell id="GDnxArKbTf9GiOXxVAqI-53" value="Widget" style="rounded=0;whiteSpace=wrap;html=1;strokeColor=#222222;fontColor=#222222;" vertex="1" parent="fqcudKtOHRjCO0kQjM6B-1">
          <mxGeometry x="780" y="120" width="120" height="46" as="geometry"/>
        </mxCell>
        <mxCell id="GDnxArKbTf9GiOXxVAqI-54" value="" style="endArrow=classic;html=1;fontColor=#222222;exitX=1;exitY=0.25;exitDx=0;exitDy=0;entryX=0;entryY=0.5;entryDx=0;entryDy=0;" edge="1" parent="fqcudKtOHRjCO0kQjM6B-1" source="GDnxArKbTf9GiOXxVAqI-10" target="GDnxArKbTf9GiOXxVAqI-51">
          <mxGeometry width="50" height="50" relative="1" as="geometry">
            <mxPoint x="690" y="136.34" as="sourcePoint"/>
            <mxPoint x="740" y="86.34" as="targetPoint"/>
          </mxGeometry>
        </mxCell>
        <mxCell id="GDnxArKbTf9GiOXxVAqI-55" value="" style="endArrow=classic;html=1;fontColor=#222222;exitX=1;exitY=0.5;exitDx=0;exitDy=0;entryX=0;entryY=0.5;entryDx=0;entryDy=0;" edge="1" parent="fqcudKtOHRjCO0kQjM6B-1" source="GDnxArKbTf9GiOXxVAqI-10" target="GDnxArKbTf9GiOXxVAqI-52">
          <mxGeometry width="50" height="50" relative="1" as="geometry">
            <mxPoint x="780" y="426.34000000000003" as="sourcePoint"/>
            <mxPoint x="830" y="376.34000000000003" as="targetPoint"/>
          </mxGeometry>
        </mxCell>
        <mxCell id="GDnxArKbTf9GiOXxVAqI-56" value="" style="endArrow=classic;html=1;fontColor=#222222;exitX=1;exitY=0.75;exitDx=0;exitDy=0;entryX=0;entryY=0.5;entryDx=0;entryDy=0;" edge="1" parent="fqcudKtOHRjCO0kQjM6B-1" source="GDnxArKbTf9GiOXxVAqI-10" target="GDnxArKbTf9GiOXxVAqI-53">
          <mxGeometry width="50" height="50" relative="1" as="geometry">
            <mxPoint x="780" y="416.34000000000003" as="sourcePoint"/>
            <mxPoint x="830" y="366.34000000000003" as="targetPoint"/>
          </mxGeometry>
        </mxCell>
      </root>
    </mxGraphModel>
  </diagram>
  <diagram id="MvduD5OF9wuli8hASq0m" name="第 9 页">
    <mxGraphModel dx="946" dy="590" grid="1" gridSize="10" guides="1" tooltips="1" connect="1" arrows="1" fold="1" page="1" pageScale="1" pageWidth="827" pageHeight="1169" math="0" shadow="0">
      <root>
        <mxCell id="TZ29hn3eG8H6Upty2gMZ-0"/>
        <mxCell id="TZ29hn3eG8H6Upty2gMZ-1" parent="TZ29hn3eG8H6Upty2gMZ-0"/>
        <mxCell id="TZ29hn3eG8H6Upty2gMZ-2" value="创建Component" style="rounded=1;whiteSpace=wrap;html=1;strokeColor=#222222;fillColor=#FFFFFF;fontColor=#222222;" vertex="1" parent="TZ29hn3eG8H6Upty2gMZ-1">
          <mxGeometry x="250" y="90" width="120" height="50" as="geometry"/>
        </mxCell>
        <mxCell id="TZ29hn3eG8H6Upty2gMZ-3" value="" style="endArrow=classic;html=1;fontColor=#222222;exitX=0.5;exitY=1;exitDx=0;exitDy=0;entryX=0.5;entryY=0;entryDx=0;entryDy=0;" edge="1" parent="TZ29hn3eG8H6Upty2gMZ-1" source="TZ29hn3eG8H6Upty2gMZ-2" target="TZ29hn3eG8H6Upty2gMZ-4">
          <mxGeometry width="50" height="50" relative="1" as="geometry">
            <mxPoint x="320" y="250" as="sourcePoint"/>
            <mxPoint x="310" y="200" as="targetPoint"/>
          </mxGeometry>
        </mxCell>
        <mxCell id="TZ29hn3eG8H6Upty2gMZ-4" value="Page的State" style="rhombus;whiteSpace=wrap;html=1;strokeColor=#222222;fillColor=#FFFFFF;fontColor=#222222;" vertex="1" parent="TZ29hn3eG8H6Upty2gMZ-1">
          <mxGeometry x="270" y="180" width="80" height="80" as="geometry"/>
        </mxCell>
        <mxCell id="TZ29hn3eG8H6Upty2gMZ-6" value="" style="endArrow=classic;html=1;fontColor=#222222;exitX=1;exitY=0.5;exitDx=0;exitDy=0;entryX=0;entryY=0.5;entryDx=0;entryDy=0;" edge="1" parent="TZ29hn3eG8H6Upty2gMZ-1" source="TZ29hn3eG8H6Upty2gMZ-4" target="TZ29hn3eG8H6Upty2gMZ-7">
          <mxGeometry width="50" height="50" relative="1" as="geometry">
            <mxPoint x="370" y="260" as="sourcePoint"/>
            <mxPoint x="420" y="220" as="targetPoint"/>
          </mxGeometry>
        </mxCell>
        <mxCell id="TZ29hn3eG8H6Upty2gMZ-7" value="创建&lt;br&gt;Store，Action，Reducer" style="rounded=1;whiteSpace=wrap;html=1;strokeColor=#222222;fillColor=#FFFFFF;fontColor=#222222;" vertex="1" parent="TZ29hn3eG8H6Upty2gMZ-1">
          <mxGeometry x="690" y="195" width="160" height="50" as="geometry"/>
        </mxCell>
        <mxCell id="TZ29hn3eG8H6Upty2gMZ-8" value="No" style="text;html=1;strokeColor=none;fillColor=none;align=center;verticalAlign=middle;whiteSpace=wrap;rounded=0;fontColor=#222222;" vertex="1" parent="TZ29hn3eG8H6Upty2gMZ-1">
          <mxGeometry x="460" y="195" width="40" height="20" as="geometry"/>
        </mxCell>
        <mxCell id="TZ29hn3eG8H6Upty2gMZ-9" value="" style="endArrow=classic;html=1;fontColor=#222222;exitX=0.5;exitY=1;exitDx=0;exitDy=0;entryX=0.5;entryY=0;entryDx=0;entryDy=0;" edge="1" parent="TZ29hn3eG8H6Upty2gMZ-1" source="TZ29hn3eG8H6Upty2gMZ-4" target="TZ29hn3eG8H6Upty2gMZ-10">
          <mxGeometry width="50" height="50" relative="1" as="geometry">
            <mxPoint x="390" y="360" as="sourcePoint"/>
            <mxPoint x="310" y="310" as="targetPoint"/>
          </mxGeometry>
        </mxCell>
        <mxCell id="TZ29hn3eG8H6Upty2gMZ-10" value="Page的Store" style="rhombus;whiteSpace=wrap;html=1;strokeColor=#222222;fillColor=#FFFFFF;fontColor=#222222;" vertex="1" parent="TZ29hn3eG8H6Upty2gMZ-1">
          <mxGeometry x="270" y="310" width="80" height="80" as="geometry"/>
        </mxCell>
        <mxCell id="TZ29hn3eG8H6Upty2gMZ-11" value="Yes" style="text;html=1;strokeColor=none;fillColor=none;align=center;verticalAlign=middle;whiteSpace=wrap;rounded=0;fontColor=#222222;" vertex="1" parent="TZ29hn3eG8H6Upty2gMZ-1">
          <mxGeometry x="260" y="270" width="40" height="20" as="geometry"/>
        </mxCell>
        <mxCell id="TZ29hn3eG8H6Upty2gMZ-12" value="" style="endArrow=classic;html=1;fontColor=#222222;exitX=1;exitY=0.5;exitDx=0;exitDy=0;" edge="1" parent="TZ29hn3eG8H6Upty2gMZ-1" source="TZ29hn3eG8H6Upty2gMZ-10" target="TZ29hn3eG8H6Upty2gMZ-13">
          <mxGeometry width="50" height="50" relative="1" as="geometry">
            <mxPoint x="400" y="420" as="sourcePoint"/>
            <mxPoint x="420" y="350" as="targetPoint"/>
          </mxGeometry>
        </mxCell>
        <mxCell id="TZ29hn3eG8H6Upty2gMZ-13" value="创建&lt;br&gt;Page组件State-&amp;gt;Component组件State" style="rounded=1;whiteSpace=wrap;html=1;strokeColor=#222222;fillColor=#FFFFFF;fontColor=#222222;" vertex="1" parent="TZ29hn3eG8H6Upty2gMZ-1">
          <mxGeometry x="430" y="320" width="220" height="60" as="geometry"/>
        </mxCell>
        <mxCell id="TZ29hn3eG8H6Upty2gMZ-14" value="No" style="text;html=1;strokeColor=none;fillColor=none;align=center;verticalAlign=middle;whiteSpace=wrap;rounded=0;fontColor=#222222;" vertex="1" parent="TZ29hn3eG8H6Upty2gMZ-1">
          <mxGeometry x="360" y="320" width="40" height="20" as="geometry"/>
        </mxCell>
        <mxCell id="TZ29hn3eG8H6Upty2gMZ-15" value="" style="endArrow=classic;html=1;fontColor=#222222;exitX=0.5;exitY=1;exitDx=0;exitDy=0;entryX=0.5;entryY=0;entryDx=0;entryDy=0;" edge="1" parent="TZ29hn3eG8H6Upty2gMZ-1" source="TZ29hn3eG8H6Upty2gMZ-10" target="TZ29hn3eG8H6Upty2gMZ-16">
          <mxGeometry width="50" height="50" relative="1" as="geometry">
            <mxPoint x="370" y="500" as="sourcePoint"/>
            <mxPoint x="310" y="450" as="targetPoint"/>
          </mxGeometry>
        </mxCell>
        <mxCell id="TZ29hn3eG8H6Upty2gMZ-16" value="&lt;span style=&quot;white-space: normal&quot;&gt;创建&lt;br&gt;&lt;/span&gt;Component&lt;span style=&quot;white-space: normal&quot;&gt;&lt;br&gt;&lt;/span&gt;" style="rounded=1;whiteSpace=wrap;html=1;strokeColor=#222222;fillColor=#FFFFFF;fontColor=#222222;" vertex="1" parent="TZ29hn3eG8H6Upty2gMZ-1">
          <mxGeometry x="250" y="440" width="120" height="60" as="geometry"/>
        </mxCell>
        <mxCell id="TZ29hn3eG8H6Upty2gMZ-17" value="Yes" style="text;html=1;strokeColor=none;fillColor=none;align=center;verticalAlign=middle;whiteSpace=wrap;rounded=0;fontColor=#222222;" vertex="1" parent="TZ29hn3eG8H6Upty2gMZ-1">
          <mxGeometry x="260" y="400" width="40" height="20" as="geometry"/>
        </mxCell>
        <mxCell id="TZ29hn3eG8H6Upty2gMZ-18" value="" style="endArrow=classic;html=1;fontColor=#222222;exitX=0.5;exitY=1;exitDx=0;exitDy=0;entryX=0.5;entryY=0;entryDx=0;entryDy=0;" edge="1" parent="TZ29hn3eG8H6Upty2gMZ-1" source="TZ29hn3eG8H6Upty2gMZ-13" target="TZ29hn3eG8H6Upty2gMZ-19">
          <mxGeometry width="50" height="50" relative="1" as="geometry">
            <mxPoint x="580" y="470" as="sourcePoint"/>
            <mxPoint x="550" y="430" as="targetPoint"/>
          </mxGeometry>
        </mxCell>
        <mxCell id="TZ29hn3eG8H6Upty2gMZ-19" value="&lt;span style=&quot;white-space: normal&quot;&gt;创建&lt;br&gt;&lt;/span&gt;Component&lt;span style=&quot;white-space: normal&quot;&gt;&lt;br&gt;&lt;/span&gt;" style="rounded=1;whiteSpace=wrap;html=1;strokeColor=#222222;fillColor=#FFFFFF;fontColor=#222222;" vertex="1" parent="TZ29hn3eG8H6Upty2gMZ-1">
          <mxGeometry x="480" y="440" width="120" height="60" as="geometry"/>
        </mxCell>
        <mxCell id="TZ29hn3eG8H6Upty2gMZ-20" value="&lt;span style=&quot;white-space: normal&quot;&gt;创建&lt;br&gt;&lt;/span&gt;&lt;span style=&quot;white-space: normal&quot;&gt;Component&lt;/span&gt;" style="rounded=1;whiteSpace=wrap;html=1;strokeColor=#222222;fillColor=#FFFFFF;fontColor=#222222;" vertex="1" parent="TZ29hn3eG8H6Upty2gMZ-1">
          <mxGeometry x="710" y="440" width="120" height="60" as="geometry"/>
        </mxCell>
        <mxCell id="TZ29hn3eG8H6Upty2gMZ-21" value="" style="endArrow=classic;html=1;fontColor=#222222;exitX=0.5;exitY=1;exitDx=0;exitDy=0;entryX=0.5;entryY=0;entryDx=0;entryDy=0;" edge="1" parent="TZ29hn3eG8H6Upty2gMZ-1" source="TZ29hn3eG8H6Upty2gMZ-7" target="TZ29hn3eG8H6Upty2gMZ-20">
          <mxGeometry width="50" height="50" relative="1" as="geometry">
            <mxPoint x="760" y="340" as="sourcePoint"/>
            <mxPoint x="810" y="290" as="targetPoint"/>
          </mxGeometry>
        </mxCell>
        <mxCell id="TZ29hn3eG8H6Upty2gMZ-22" value="" style="endArrow=none;dashed=1;html=1;fontColor=#222222;entryX=0.5;entryY=1;entryDx=0;entryDy=0;gradientColor=#ffa500;fillColor=#ffcd28;strokeColor=#d79b00;exitX=0.5;exitY=0;exitDx=0;exitDy=0;" edge="1" parent="TZ29hn3eG8H6Upty2gMZ-1" source="zc-SaABGEoBxb94H3KXR-3" target="TZ29hn3eG8H6Upty2gMZ-16">
          <mxGeometry width="50" height="50" relative="1" as="geometry">
            <mxPoint x="310" y="560" as="sourcePoint"/>
            <mxPoint x="350" y="560" as="targetPoint"/>
          </mxGeometry>
        </mxCell>
        <mxCell id="TZ29hn3eG8H6Upty2gMZ-25" value="" style="endArrow=none;dashed=1;html=1;fontColor=#222222;entryX=0.5;entryY=1;entryDx=0;entryDy=0;gradientColor=#ffa500;fillColor=#ffcd28;strokeColor=#d79b00;" edge="1" parent="TZ29hn3eG8H6Upty2gMZ-1" target="TZ29hn3eG8H6Upty2gMZ-19">
          <mxGeometry width="50" height="50" relative="1" as="geometry">
            <mxPoint x="540" y="560" as="sourcePoint"/>
            <mxPoint x="500" y="500" as="targetPoint"/>
          </mxGeometry>
        </mxCell>
        <mxCell id="TZ29hn3eG8H6Upty2gMZ-27" value="" style="endArrow=none;dashed=1;html=1;fontColor=#222222;entryX=0.5;entryY=1;entryDx=0;entryDy=0;gradientColor=#ffa500;fillColor=#ffcd28;strokeColor=#d79b00;" edge="1" parent="TZ29hn3eG8H6Upty2gMZ-1" target="TZ29hn3eG8H6Upty2gMZ-20">
          <mxGeometry width="50" height="50" relative="1" as="geometry">
            <mxPoint x="770" y="560" as="sourcePoint"/>
            <mxPoint x="660" y="480" as="targetPoint"/>
          </mxGeometry>
        </mxCell>
        <mxCell id="zc-SaABGEoBxb94H3KXR-0" value="" style="group" vertex="1" connectable="0" parent="TZ29hn3eG8H6Upty2gMZ-1">
          <mxGeometry x="229.25" y="570" width="161.5" height="130" as="geometry"/>
        </mxCell>
        <mxCell id="zc-SaABGEoBxb94H3KXR-1" value="" style="group" vertex="1" connectable="0" parent="zc-SaABGEoBxb94H3KXR-0">
          <mxGeometry width="161.5" height="130" as="geometry"/>
        </mxCell>
        <mxCell id="zc-SaABGEoBxb94H3KXR-2" value="" style="group" vertex="1" connectable="0" parent="zc-SaABGEoBxb94H3KXR-1">
          <mxGeometry width="161.5" height="130" as="geometry"/>
        </mxCell>
        <mxCell id="zc-SaABGEoBxb94H3KXR-3" value="Component" style="rounded=0;whiteSpace=wrap;html=1;fillColor=#e51400;strokeColor=#B20000;fontColor=#ffffff;" vertex="1" parent="zc-SaABGEoBxb94H3KXR-2">
          <mxGeometry width="161.5" height="43.333333333333336" as="geometry"/>
        </mxCell>
        <mxCell id="zc-SaABGEoBxb94H3KXR-4" value="" style="rounded=0;whiteSpace=wrap;html=1;fillColor=#008a00;strokeColor=#005700;fontColor=#ffffff;" vertex="1" parent="zc-SaABGEoBxb94H3KXR-2">
          <mxGeometry y="54.16666666666667" width="47.5" height="32.5" as="geometry"/>
        </mxCell>
        <mxCell id="zc-SaABGEoBxb94H3KXR-5" value="&lt;span style=&quot;white-space: normal&quot;&gt;View&lt;/span&gt;" style="rounded=0;whiteSpace=wrap;html=1;" vertex="1" parent="zc-SaABGEoBxb94H3KXR-2">
          <mxGeometry x="57" y="54.16666666666667" width="47.5" height="32.5" as="geometry"/>
        </mxCell>
        <mxCell id="zc-SaABGEoBxb94H3KXR-6" value="&lt;span style=&quot;white-space: normal&quot;&gt;Reducer&lt;/span&gt;" style="rounded=0;whiteSpace=wrap;html=1;dashed=1;strokeColor=#FF6633;" vertex="1" parent="zc-SaABGEoBxb94H3KXR-2">
          <mxGeometry x="114" y="54.16666666666667" width="47.5" height="32.5" as="geometry"/>
        </mxCell>
        <mxCell id="zc-SaABGEoBxb94H3KXR-7" value="&lt;span style=&quot;white-space: normal&quot;&gt;Store&lt;/span&gt;" style="rounded=0;whiteSpace=wrap;html=1;dashed=1;strokeColor=#005700;fillColor=#008a00;fontColor=#ffffff;" vertex="1" parent="zc-SaABGEoBxb94H3KXR-2">
          <mxGeometry y="97.5" width="47.5" height="32.5" as="geometry"/>
        </mxCell>
        <mxCell id="zc-SaABGEoBxb94H3KXR-8" value="&lt;span style=&quot;white-space: normal&quot;&gt;Action&lt;/span&gt;" style="rounded=0;whiteSpace=wrap;html=1;dashed=1;strokeColor=#FF6633;" vertex="1" parent="zc-SaABGEoBxb94H3KXR-2">
          <mxGeometry x="57" y="97.5" width="47.5" height="32.5" as="geometry"/>
        </mxCell>
        <mxCell id="zc-SaABGEoBxb94H3KXR-9" value="&lt;span style=&quot;white-space: normal&quot;&gt;Effect&lt;/span&gt;" style="rounded=0;whiteSpace=wrap;html=1;dashed=1;strokeColor=#FF6633;" vertex="1" parent="zc-SaABGEoBxb94H3KXR-2">
          <mxGeometry x="114" y="97.5" width="47.5" height="32.5" as="geometry"/>
        </mxCell>
        <mxCell id="zc-SaABGEoBxb94H3KXR-10" value="&lt;font color=&quot;#ffffff&quot;&gt;State&lt;/font&gt;" style="text;html=1;strokeColor=none;fillColor=none;align=center;verticalAlign=middle;whiteSpace=wrap;rounded=0;" vertex="1" parent="zc-SaABGEoBxb94H3KXR-2">
          <mxGeometry x="4.749999999999999" y="59.58333333333334" width="37.99999999999999" height="21.666666666666668" as="geometry"/>
        </mxCell>
        <mxCell id="CDNcE7n6CQj4b2yJCe-k-0" value="" style="group" vertex="1" connectable="0" parent="TZ29hn3eG8H6Upty2gMZ-1">
          <mxGeometry x="689.25" y="560" width="161.5" height="130" as="geometry"/>
        </mxCell>
        <mxCell id="CDNcE7n6CQj4b2yJCe-k-1" value="" style="group" vertex="1" connectable="0" parent="CDNcE7n6CQj4b2yJCe-k-0">
          <mxGeometry width="161.5" height="130" as="geometry"/>
        </mxCell>
        <mxCell id="CDNcE7n6CQj4b2yJCe-k-2" value="Component" style="rounded=0;whiteSpace=wrap;html=1;fillColor=#fa6800;strokeColor=#C73500;fontColor=#ffffff;" vertex="1" parent="CDNcE7n6CQj4b2yJCe-k-1">
          <mxGeometry width="161.5" height="43.333333333333336" as="geometry"/>
        </mxCell>
        <mxCell id="CDNcE7n6CQj4b2yJCe-k-3" value="" style="rounded=0;whiteSpace=wrap;html=1;fillColor=#d80073;strokeColor=#A50040;fontColor=#ffffff;" vertex="1" parent="CDNcE7n6CQj4b2yJCe-k-1">
          <mxGeometry y="54.16666666666667" width="47.5" height="32.5" as="geometry"/>
        </mxCell>
        <mxCell id="CDNcE7n6CQj4b2yJCe-k-4" value="&lt;span style=&quot;white-space: normal&quot;&gt;View&lt;/span&gt;" style="rounded=0;whiteSpace=wrap;html=1;" vertex="1" parent="CDNcE7n6CQj4b2yJCe-k-1">
          <mxGeometry x="57" y="54.16666666666667" width="47.5" height="32.5" as="geometry"/>
        </mxCell>
        <mxCell id="CDNcE7n6CQj4b2yJCe-k-5" value="&lt;span style=&quot;white-space: normal&quot;&gt;Reducer&lt;/span&gt;" style="rounded=0;whiteSpace=wrap;html=1;" vertex="1" parent="CDNcE7n6CQj4b2yJCe-k-1">
          <mxGeometry x="114" y="54.16666666666667" width="47.5" height="32.5" as="geometry"/>
        </mxCell>
        <mxCell id="CDNcE7n6CQj4b2yJCe-k-6" value="&lt;span style=&quot;white-space: normal&quot;&gt;Store&lt;/span&gt;" style="rounded=0;whiteSpace=wrap;html=1;fillColor=#d80073;strokeColor=#A50040;fontColor=#ffffff;" vertex="1" parent="CDNcE7n6CQj4b2yJCe-k-1">
          <mxGeometry y="97.5" width="47.5" height="32.5" as="geometry"/>
        </mxCell>
        <mxCell id="CDNcE7n6CQj4b2yJCe-k-7" value="&lt;span style=&quot;white-space: normal&quot;&gt;Action&lt;/span&gt;" style="rounded=0;whiteSpace=wrap;html=1;" vertex="1" parent="CDNcE7n6CQj4b2yJCe-k-1">
          <mxGeometry x="57" y="97.5" width="47.5" height="32.5" as="geometry"/>
        </mxCell>
        <mxCell id="CDNcE7n6CQj4b2yJCe-k-8" value="&lt;span style=&quot;white-space: normal&quot;&gt;Effect&lt;/span&gt;" style="rounded=0;whiteSpace=wrap;html=1;" vertex="1" parent="CDNcE7n6CQj4b2yJCe-k-1">
          <mxGeometry x="114" y="97.5" width="47.5" height="32.5" as="geometry"/>
        </mxCell>
        <mxCell id="CDNcE7n6CQj4b2yJCe-k-9" value="State" style="text;html=1;strokeColor=none;fillColor=none;align=center;verticalAlign=middle;whiteSpace=wrap;rounded=0;fontColor=#FFFFFF;" vertex="1" parent="CDNcE7n6CQj4b2yJCe-k-1">
          <mxGeometry x="4.749999999999999" y="59.58333333333334" width="37.99999999999999" height="21.666666666666668" as="geometry"/>
        </mxCell>
        <mxCell id="KNb5s9LVUEn3sDv2Wwyq-0" value="" style="group" vertex="1" connectable="0" parent="TZ29hn3eG8H6Upty2gMZ-1">
          <mxGeometry x="459.25" y="560" width="161.5" height="130" as="geometry"/>
        </mxCell>
        <mxCell id="KNb5s9LVUEn3sDv2Wwyq-1" value="" style="group" vertex="1" connectable="0" parent="KNb5s9LVUEn3sDv2Wwyq-0">
          <mxGeometry width="161.5" height="130" as="geometry"/>
        </mxCell>
        <mxCell id="KNb5s9LVUEn3sDv2Wwyq-2" value="Component" style="rounded=0;whiteSpace=wrap;html=1;fillColor=#f0a30a;strokeColor=#BD7000;fontColor=#ffffff;" vertex="1" parent="KNb5s9LVUEn3sDv2Wwyq-1">
          <mxGeometry width="161.5" height="43.333333333333336" as="geometry"/>
        </mxCell>
        <mxCell id="KNb5s9LVUEn3sDv2Wwyq-3" value="" style="rounded=0;whiteSpace=wrap;html=1;fillColor=#d80073;strokeColor=#A50040;fontColor=#ffffff;" vertex="1" parent="KNb5s9LVUEn3sDv2Wwyq-1">
          <mxGeometry y="54.16666666666667" width="47.5" height="32.5" as="geometry"/>
        </mxCell>
        <mxCell id="KNb5s9LVUEn3sDv2Wwyq-4" value="&lt;span style=&quot;white-space: normal&quot;&gt;View&lt;/span&gt;" style="rounded=0;whiteSpace=wrap;html=1;" vertex="1" parent="KNb5s9LVUEn3sDv2Wwyq-1">
          <mxGeometry x="57" y="54.16666666666667" width="47.5" height="32.5" as="geometry"/>
        </mxCell>
        <mxCell id="KNb5s9LVUEn3sDv2Wwyq-5" value="&lt;span style=&quot;white-space: normal&quot;&gt;Reducer&lt;/span&gt;" style="rounded=0;whiteSpace=wrap;html=1;strokeColor=#FF6633;" vertex="1" parent="KNb5s9LVUEn3sDv2Wwyq-1">
          <mxGeometry x="114" y="54.16666666666667" width="47.5" height="32.5" as="geometry"/>
        </mxCell>
        <mxCell id="KNb5s9LVUEn3sDv2Wwyq-6" value="&lt;span style=&quot;white-space: normal&quot;&gt;Store&lt;/span&gt;" style="rounded=0;whiteSpace=wrap;html=1;strokeColor=#005700;fillColor=#008a00;fontColor=#ffffff;" vertex="1" parent="KNb5s9LVUEn3sDv2Wwyq-1">
          <mxGeometry y="97.5" width="47.5" height="32.5" as="geometry"/>
        </mxCell>
        <mxCell id="KNb5s9LVUEn3sDv2Wwyq-7" value="&lt;span style=&quot;white-space: normal&quot;&gt;Action&lt;/span&gt;" style="rounded=0;whiteSpace=wrap;html=1;strokeColor=#FF6633;" vertex="1" parent="KNb5s9LVUEn3sDv2Wwyq-1">
          <mxGeometry x="57" y="97.5" width="47.5" height="32.5" as="geometry"/>
        </mxCell>
        <mxCell id="KNb5s9LVUEn3sDv2Wwyq-8" value="&lt;span style=&quot;white-space: normal&quot;&gt;Effect&lt;/span&gt;" style="rounded=0;whiteSpace=wrap;html=1;strokeColor=#FF6633;" vertex="1" parent="KNb5s9LVUEn3sDv2Wwyq-1">
          <mxGeometry x="114" y="97.5" width="47.5" height="32.5" as="geometry"/>
        </mxCell>
        <mxCell id="KNb5s9LVUEn3sDv2Wwyq-9" value="&lt;font color=&quot;#ffffff&quot;&gt;State&lt;/font&gt;" style="text;html=1;strokeColor=none;fillColor=none;align=center;verticalAlign=middle;whiteSpace=wrap;rounded=0;" vertex="1" parent="KNb5s9LVUEn3sDv2Wwyq-1">
          <mxGeometry x="4.749999999999999" y="59.58333333333334" width="37.99999999999999" height="21.666666666666668" as="geometry"/>
        </mxCell>
        <mxCell id="KNb5s9LVUEn3sDv2Wwyq-10" value="Translator" style="rounded=0;whiteSpace=wrap;html=1;strokeColor=#FF6633;fillColor=#FFFFFF;fontColor=#222222;" vertex="1" parent="TZ29hn3eG8H6Upty2gMZ-1">
          <mxGeometry x="459.25000000000006" y="700" width="160" height="29" as="geometry"/>
        </mxCell>
      </root>
    </mxGraphModel>
  </diagram>
</mxfile>
